<svg width="60" height="49" viewBox="0 0 60 49" fill="none" xmlns="http://www.w3.org/2000/svg">
<path d="M45.185 22.6768C39.2249 18.986 34.876 11.4364 33.6506 2.33148C32.4252 11.4364 28.0759 18.986 22.1157 22.6768C20.9564 23.3954 18.0688 24.5 18.0688 24.5C18.0688 24.5 20.9564 25.6046 22.1157 26.3232C28.0759 30.0146 32.4252 37.5631 33.6506 46.6685C34.876 37.5631 39.2249 30.0146 45.185 26.3232C46.3449 25.6046 49.2319 24.5 49.2319 24.5C49.2319 24.5 46.3449 23.3954 45.185 22.6768Z" fill="#FFEB34"/>
<path d="M13.609 17.1469C10.6178 15.8195 8.43522 13.1036 7.81972 9.828C7.20478 13.1036 5.02224 15.8195 2.03104 17.1469C1.44914 17.4056 0 17.8031 0 17.8031C0 17.8031 1.44914 18.2007 2.03104 18.4588C5.02224 19.7868 7.20478 22.5026 7.81972 25.7783C8.43522 22.5026 10.6178 19.7868 13.609 18.4588C14.1909 18.2007 15.6398 17.8031 15.6398 17.8031C15.6398 17.8031 14.1909 17.4056 13.609 17.1469Z" fill="#FFEB34"/>
<path d="M57.5011 7.31886C54.5098 5.99091 52.3273 3.27561 51.7124 0C51.0969 3.27561 48.9143 5.99091 45.9231 7.31886C45.3412 7.57703 43.8923 7.97513 43.8923 7.97513C43.8923 7.97513 45.3412 8.37266 45.9231 8.63082C48.9143 9.9582 51.0969 12.6741 51.7124 15.9503C52.3273 12.6741 54.5098 9.9582 57.5011 8.63082C58.083 8.37266 59.5319 7.97513 59.5319 7.97513C59.5319 7.97513 58.083 7.57703 57.5011 7.31886Z" fill="#FFEB34"/>
<path d="M57.5011 40.3686C54.5098 39.0412 52.3273 36.3254 51.7124 33.0497C51.0969 36.3254 48.9143 39.0412 45.9231 40.3686C45.3412 40.6279 43.8923 41.0249 43.8923 41.0249C43.8923 41.0249 45.3412 41.4224 45.9231 41.6806C48.9143 43.0091 51.0969 45.7244 51.7124 49C52.3273 45.7244 54.5098 43.0091 57.5011 41.6806C58.083 41.4224 59.5319 41.0249 59.5319 41.0249C59.5319 41.0249 58.083 40.6279 57.5011 40.3686Z" fill="#FFEB34"/>
</svg>
