<svg width="51" height="51" viewBox="0 0 51 51" fill="none" xmlns="http://www.w3.org/2000/svg">
<path d="M33.3389 26.6334C33.3389 26.6334 50.0083 26.6334 50.0083 25.4998C50.0083 24.3666 33.3389 24.3666 33.3389 24.3666H33.2628C33.0649 22.8542 32.4783 21.4683 31.6069 20.3158C33.8776 17.8875 37.3242 14.0232 36.7912 13.4792C36.2578 12.9352 32.4687 16.4503 30.0876 18.7664C28.9575 17.8776 27.5982 17.279 26.1151 17.0772V17C26.1151 17 26.1151 0 25.004 0C23.8928 0 23.8928 17 23.8928 17V17.0772C22.4098 17.279 21.0504 17.8776 19.9203 18.7664C17.5393 16.4503 13.7501 12.9352 13.2167 13.4792C12.6837 14.0232 16.1304 17.8875 18.4011 20.3158C17.53 21.4683 16.943 22.8542 16.7452 24.3666H16.6694C16.6694 24.3666 0 24.3666 0 25.4998C0 26.6334 16.6694 26.6334 16.6694 26.6334H16.7452C16.943 28.1462 17.53 29.5321 18.4011 30.6842C16.1304 33.1129 12.6837 36.9772 13.2167 37.5208C13.7501 38.0648 17.5393 34.5498 19.9203 32.2341C21.0504 33.1224 22.4098 33.721 23.8928 33.9223V34C23.8928 34 23.8928 51 25.004 51C26.1151 51 26.1151 34 26.1151 34V33.9223C27.5982 33.721 28.9575 33.1224 30.0876 32.2341C32.4687 34.5498 36.2578 38.0648 36.7912 37.5208C37.3242 36.9772 33.8776 33.1129 31.6069 30.6842C32.4783 29.5321 33.0649 28.1462 33.2628 26.6334H33.3389Z" fill="#FFEB34"/>
</svg>
