<svg width="20" height="20" viewBox="0 0 20 20" fill="none" xmlns="http://www.w3.org/2000/svg">
<path fill-rule="evenodd" clip-rule="evenodd" d="M10.0222 20C12.6228 20 15.1169 18.9464 16.9558 17.0711C18.7947 15.1957 19.8278 12.6522 19.8278 10C19.8278 7.34784 18.7947 4.8043 16.9558 2.92893C15.1169 1.05357 12.6228 0 10.0222 0C7.42163 0 4.92755 1.05357 3.08865 2.92893C1.24976 4.8043 0.216675 7.34784 0.216675 10C0.216675 12.6522 1.24976 15.1957 3.08865 17.0711C4.92755 18.9464 7.42163 20 10.0222 20ZM14.5659 8.38375C14.7891 8.148 14.9127 7.83224 14.9099 7.5045C14.9071 7.17675 14.7782 6.86324 14.5509 6.63148C14.3237 6.39972 14.0163 6.26826 13.6949 6.26541C13.3735 6.26256 13.0639 6.38855 12.8327 6.61625L8.79652 10.7325L7.2117 9.11625C6.98053 8.88855 6.67092 8.76256 6.34955 8.76541C6.02818 8.76826 5.72076 8.89972 5.4935 9.13148C5.26625 9.36324 5.13735 9.67675 5.13455 10.0045C5.13176 10.3322 5.2553 10.648 5.47857 10.8837L7.92996 13.3837C8.15981 13.6181 8.47151 13.7497 8.79652 13.7497C9.12153 13.7497 9.43324 13.6181 9.66309 13.3837L14.5659 8.38375Z" fill="#D8CAFF"/>
</svg>
