<svg width="49" height="29" viewBox="0 0 49 29" fill="none" xmlns="http://www.w3.org/2000/svg">
<path d="M46.3036 29H2.20496C0.992247 29 0 27.9961 0 26.7692V2.23079C0 1.00387 0.992247 0 2.20496 0H46.3037C47.5164 0 48.5087 1.00387 48.5087 2.23079V26.7692C48.5086 27.9961 47.5163 29 46.3036 29Z" fill="#40B974"/>
<path d="M41.6506 27.2942H6.85805C6.85805 24.8206 4.90102 22.7969 2.50903 22.7969V7.05615C4.90102 7.05615 6.85805 5.03238 6.85805 2.55884H41.6506C41.6506 5.03238 43.6076 7.05615 45.9996 7.05615V22.7969C43.6076 22.7969 41.6506 24.8206 41.6506 27.2942Z" fill="#8DFF9B"/>
<path d="M24.2544 24.7354C29.3353 24.7354 33.4543 20.1528 33.4543 14.5C33.4543 8.84717 29.3353 4.26465 24.2544 4.26465C19.1734 4.26465 15.0544 8.84717 15.0544 14.5C15.0544 20.1528 19.1734 24.7354 24.2544 24.7354Z" fill="#40B974"/>
<path d="M11.2909 17.0588C12.4456 17.0588 13.3818 15.9132 13.3818 14.5C13.3818 13.0868 12.4456 11.9412 11.2909 11.9412C10.1361 11.9412 9.19995 13.0868 9.19995 14.5C9.19995 15.9132 10.1361 17.0588 11.2909 17.0588Z" fill="#40B974"/>
<path d="M37.2179 17.0588C38.3726 17.0588 39.3088 15.9132 39.3088 14.5C39.3088 13.0868 38.3726 11.9412 37.2179 11.9412C36.0631 11.9412 35.127 13.0868 35.127 14.5C35.127 15.9132 36.0631 17.0588 37.2179 17.0588Z" fill="#40B974"/>
<path d="M25.2997 13.3627H23.2088C22.5815 13.3627 22.1634 12.9077 22.1634 12.2254C22.1634 11.5431 22.5816 11.0882 23.2088 11.0882H26.3452C26.9724 11.0882 27.3906 10.6333 27.3906 9.95098C27.3906 9.2686 26.9724 8.81375 26.3452 8.81375H25.2997C25.2997 8.13137 24.8815 7.67651 24.2543 7.67651C23.627 7.67651 23.2089 8.13147 23.2089 8.81375C21.4316 8.81375 20.0725 10.2922 20.0725 12.2255C20.0725 14.1589 21.4316 15.6373 23.2089 15.6373H25.2998C25.9271 15.6373 26.3452 16.0923 26.3452 16.7746C26.3452 17.4569 25.927 17.9118 25.2998 17.9118H22.1635C21.5362 17.9118 21.118 18.3667 21.118 19.049C21.118 19.7314 21.5362 20.1863 22.1635 20.1863H23.2089C23.2089 20.8686 23.6271 21.3235 24.2543 21.3235C24.8816 21.3235 25.2997 20.8685 25.2997 20.1863C27.077 20.1863 28.4361 18.7078 28.4361 16.7745C28.4361 14.8411 27.077 13.3627 25.2997 13.3627Z" fill="#AFFF7D"/>
</svg>
