<svg width="28" height="29" viewBox="0 0 28 29" fill="none" xmlns="http://www.w3.org/2000/svg">
<path d="M27.9098 8.2781C27.8941 7.10048 27.6737 5.93457 27.2583 4.83252C26.8981 3.90295 26.348 3.05873 25.6431 2.3538C24.9382 1.64888 24.0939 1.09875 23.1644 0.738561C22.0765 0.330187 20.9272 0.109371 19.7654 0.0855177C18.2697 0.0186585 17.7954 0 13.9984 0C10.2015 0 9.71479 1.04262e-07 8.2299 0.0855177C7.06866 0.109547 5.91991 0.330359 4.83252 0.738561C3.9028 1.0985 3.05845 1.64854 2.35349 2.35349C1.64854 3.05845 1.09849 3.9028 0.73856 4.83252C0.329369 5.91958 0.109032 7.06859 0.0870724 8.2299C0.0202132 9.72723 0 10.2015 0 13.9984C0 17.7954 -1.15846e-08 18.2805 0.0870724 19.767C0.110395 20.93 0.329631 22.0775 0.73856 23.1675C1.0991 24.0969 1.64955 24.9409 2.35474 25.6456C3.05994 26.3502 3.90436 26.9001 4.83407 27.2599C5.91849 27.6847 7.06744 27.9213 8.23145 27.9596C9.72879 28.0264 10.203 28.0466 14 28.0466C17.797 28.0466 18.2837 28.0466 19.7685 27.9596C20.9303 27.9367 22.0796 27.7164 23.1675 27.3081C24.0968 26.9475 24.9408 26.3972 25.6457 25.6923C26.3506 24.9875 26.9008 24.1435 27.2614 23.2141C27.6704 22.1257 27.8896 20.9782 27.9129 19.8136C27.9798 18.3179 28 17.8436 28 14.0451C27.9969 10.2481 27.9969 9.76611 27.9098 8.2781ZM13.9891 21.1788C10.018 21.1788 6.80098 17.9618 6.80098 13.9907C6.80098 10.0195 10.018 6.80253 13.9891 6.80253C15.8955 6.80253 17.7239 7.55985 19.0719 8.90789C20.4199 10.2559 21.1773 12.0843 21.1773 13.9907C21.1773 15.8971 20.4199 17.7254 19.0719 19.0735C17.7239 20.4215 15.8955 21.1788 13.9891 21.1788ZM21.4634 8.21279C21.2432 8.213 21.0251 8.16979 20.8217 8.08562C20.6182 8.00146 20.4334 7.87801 20.2777 7.72232C20.122 7.56664 19.9985 7.38178 19.9144 7.17833C19.8302 6.97487 19.787 6.75682 19.7872 6.53665C19.7872 6.31664 19.8305 6.09878 19.9147 5.89552C19.9989 5.69225 20.1223 5.50756 20.2779 5.35199C20.4335 5.19642 20.6182 5.07301 20.8214 4.98881C21.0247 4.90462 21.2426 4.86128 21.4626 4.86128C21.6826 4.86128 21.9004 4.90462 22.1037 4.98881C22.307 5.07301 22.4917 5.19642 22.6472 5.35199C22.8028 5.50756 22.9262 5.69225 23.0104 5.89552C23.0946 6.09878 23.1379 6.31664 23.1379 6.53665C23.1379 7.46335 22.3885 8.21279 21.4634 8.21279Z" fill="#FAF9FC"/>
<path d="M13.9891 18.6603C16.5678 18.6603 18.6583 16.5698 18.6583 13.991C18.6583 11.4123 16.5678 9.32178 13.9891 9.32178C11.4103 9.32178 9.31982 11.4123 9.31982 13.991C9.31982 16.5698 11.4103 18.6603 13.9891 18.6603Z" fill="#FAF9FC"/>
</svg>
