<svg width="25" height="25" viewBox="0 0 25 25" fill="none" xmlns="http://www.w3.org/2000/svg">
<path d="M23.6033 14.0904C23.365 14.0326 23.126 14.0904 22.9179 14.2447C22.1426 14.9196 21.2491 15.466 20.2657 15.8324C19.342 16.1988 18.3283 16.3852 17.2556 16.3852C14.8416 16.3852 12.6364 15.3761 11.0569 13.7563C9.478 12.1364 8.49457 9.88028 8.49457 7.40557C8.49457 6.36426 8.67313 5.36145 8.97118 4.44228C9.29878 3.46525 9.77542 2.57823 10.4017 1.81332C10.6696 1.47908 10.6098 0.990587 10.2822 0.714191C10.0735 0.566351 9.83514 0.502086 9.59683 0.566364C7.06404 1.267 4.85885 2.82252 3.27931 4.89871C1.75951 6.94918 0.865356 9.48168 0.865356 12.2328C0.865356 15.556 2.17639 18.5835 4.32248 20.7818C6.46794 22.9801 9.38808 24.3235 12.6666 24.3235C15.4082 24.3235 17.941 23.3465 19.9676 21.7267C22.0238 20.0812 23.514 17.7286 24.1397 15.0418C24.2585 14.6112 24.0202 14.1869 23.6033 14.0904Z" fill="#574488"/>
</svg>
