<svg width="27" height="21" viewBox="0 0 27 21" fill="none" xmlns="http://www.w3.org/2000/svg">
<path d="M9.11051 19.9645C12.2773 21.3786 15.7723 20.9737 18.4811 19.206C17.6197 19.161 16.768 19.0518 15.9246 18.8975C14.9617 18.724 14.0084 18.4797 13.0751 18.1776C11.2065 17.5798 9.40084 16.7763 7.70247 15.78C6.85328 15.2851 6.03105 14.7387 5.24738 14.141C4.56007 13.6075 3.90231 13.0482 3.28308 12.4312C3.85413 15.6579 5.94115 18.5504 9.11051 19.9645Z" fill="#574488"/>
<path d="M0.666739 6.62042C1.02581 8.52947 2.35933 10.3036 3.69607 11.6341C5.34626 13.2796 7.33753 14.623 9.39434 15.6708C12.7018 17.3677 16.5797 18.5504 20.3111 18.3575C21.7249 18.2868 23.2293 17.9912 24.4433 17.2134C24.8705 16.9371 25.2713 16.59 25.597 16.1657C26.2368 15.3365 26.5033 14.2823 26.3717 13.2346C26.213 11.9812 25.5854 10.8564 24.8165 9.88578C24.4941 9.4744 24.1562 9.10803 23.8183 8.77379C23.9288 9.42942 23.9796 10.0979 23.9738 10.7664C23.9706 10.9014 23.9674 11.0363 23.9616 11.1713C24.0335 11.2999 24.1022 11.4349 24.1678 11.5698C24.5596 12.3926 24.8827 13.4275 24.5211 14.321C24.2757 14.9316 23.7284 15.3751 23.1336 15.6322C21.872 16.1721 20.3766 16.185 19.0373 16.0757C15.2192 15.7736 11.4248 14.2502 8.18672 12.2126C7.82186 11.9812 7.46603 11.737 7.11659 11.4863C5.41821 10.2779 3.60934 8.73519 2.79292 6.73616C2.37732 5.72057 2.39529 4.60857 3.25347 3.8501C3.81553 3.34873 4.62552 3.04018 5.34303 2.86663C5.88774 2.30098 6.49415 1.79321 7.15513 1.35612C7.01766 1.34969 6.88018 1.34324 6.73951 1.33682C5.41819 1.30468 4.02495 1.46541 2.83467 2.09533C1.95851 2.55813 1.20245 3.30373 0.837599 4.24218C0.547256 4.9878 0.520283 5.82338 0.666739 6.62042Z" fill="#574488"/>
<path d="M6.30608 3.22014C5.79477 3.70223 5.33164 4.24215 4.9276 4.82065C4.44648 5.50842 3.69878 6.45331 4.05786 7.31463C4.26084 7.80957 4.63212 8.20807 4.99954 8.57445C7.60106 11.1648 10.9015 12.9325 14.3432 14.1216C16.4662 14.848 18.6874 15.3751 20.9241 15.2787C21.3429 15.2594 21.8002 15.2015 22.0899 14.8929C22.2396 14.7387 22.3263 14.533 22.404 14.3274C23.6508 11.0428 23.0708 7.10251 20.9331 4.33857C18.7953 1.57463 15.1744 0.0833803 11.7539 0.559036C9.94501 0.809719 8.22608 1.6003 6.81419 2.77659C6.63819 2.918 6.47053 3.06588 6.30608 3.22014Z" fill="#574488"/>
</svg>
