<svg width="50" height="50" viewBox="0 0 50 50" fill="none" xmlns="http://www.w3.org/2000/svg">
<g clip-path="url(#clip0)">
<path d="M42.5781 7.97078C34.47 7.97078 26.0673 0.455054 25.9841 0.379761C25.4256 -0.126587 24.5743 -0.126587 24.0159 0.379761C23.9322 0.45564 15.5516 7.97078 7.42188 7.97078C6.61289 7.97078 5.95703 8.62664 5.95703 9.43562V26.9784C5.95703 41.1897 16.527 46.8684 24.4775 49.9037C24.6458 49.9679 24.8229 50 25 50C25.1771 50 25.3542 49.9678 25.5225 49.9037C36.6703 45.6478 44.043 39.0093 44.043 26.9784V9.43562C44.043 8.62664 43.3871 7.97078 42.5781 7.97078Z" fill="url(#paint0_linear)"/>
<path d="M25 14.7461C19.346 14.7461 14.7461 19.346 14.7461 25C14.7461 30.654 19.346 35.2539 25 35.2539C30.654 35.2539 35.2539 30.654 35.2539 25C35.2539 19.346 30.654 14.7461 25 14.7461ZM28.9654 24.5709L24.5709 28.9654C24.285 29.2515 23.9101 29.3945 23.5352 29.3945C23.1603 29.3945 22.7854 29.2516 22.4994 28.9654L21.0346 27.5006C20.4625 26.9285 20.4625 26.0011 21.0346 25.429C21.6065 24.8569 22.5341 24.8569 23.1062 25.429L23.5353 25.858L26.894 22.4993C27.466 21.9272 28.3936 21.9272 28.9656 22.4993C29.5376 23.0714 29.5376 23.9988 28.9654 24.5709Z" fill="url(#paint1_linear)"/>
</g>
<defs>
<linearGradient id="paint0_linear" x1="25" y1="0" x2="25" y2="50" gradientUnits="userSpaceOnUse">
<stop stop-color="#91DEFF"/>
<stop offset="1" stop-color="#22BCFE"/>
</linearGradient>
<linearGradient id="paint1_linear" x1="25" y1="35.2539" x2="25" y2="14.7461" gradientUnits="userSpaceOnUse">
<stop stop-color="#ADE7FF"/>
<stop offset="0.9973" stop-color="white"/>
</linearGradient>
<clipPath id="clip0">
<rect width="50" height="50" fill="white"/>
</clipPath>
</defs>
</svg>
