<svg width="48" height="48" viewBox="0 0 48 48" fill="none" xmlns="http://www.w3.org/2000/svg">
<path d="M37.5478 31.0182C35.6469 33.629 32.5677 35.3294 29.0983 35.3294H24.2303C22.5487 35.3294 21.1166 34.2618 20.5744 32.7675C19.905 32.5678 19.2486 32.3086 18.6081 31.9904C17.2516 31.3164 16.0199 30.4033 14.9357 29.2722C7.90282 30.8173 2.63916 37.0839 2.63916 44.581V45.5609C2.63916 46.9079 3.73122 48 5.07828 48H42.9216C44.2686 48 45.3607 46.9079 45.3607 45.5609V44.581C45.3606 38.7895 42.2192 33.732 37.5478 31.0182Z" fill="url(#paint0_linear)"/>
<path d="M12.3433 24.2448C13.3916 24.2448 14.304 23.6638 14.7767 22.8063C14.7892 22.8403 14.8018 22.874 14.8145 22.9077C14.8183 22.9179 14.8221 22.928 14.8258 22.9381C15.9348 25.8572 18.0926 28.3042 20.9379 29.3734C21.6261 28.28 22.8429 27.5528 24.2304 27.5528H29.0984C29.5839 27.5528 30.0359 27.4158 30.4321 27.1943C31.0975 26.8222 31.6958 25.8784 32.0048 25.3781C32.4992 24.5775 32.8824 23.7294 33.2221 22.8049C33.4129 23.1516 33.6755 23.4531 33.99 23.6894V24.8831C33.99 27.5804 31.7956 29.7748 29.0983 29.7748H24.2303C23.31 29.7748 22.5639 30.5209 22.5639 31.4412C22.5639 32.3616 23.31 33.1076 24.2303 33.1076H29.0983C33.6333 33.1076 37.3228 29.4181 37.3228 24.8831V23.6894C37.9973 23.1827 38.4337 22.3761 38.4337 21.4675V16.4428V14.516C38.4337 13.5887 37.9789 12.7682 37.2807 12.2638C36.7391 5.41079 30.9896 0 23.9998 0C17.0099 0 11.2605 5.41079 10.719 12.2637C10.0207 12.7681 9.56592 13.5887 9.56592 14.5159V21.4673C9.56592 23.0056 10.8156 24.2448 12.3433 24.2448ZM23.9998 3.33288C29.1742 3.33288 33.4421 7.28717 33.9409 12.3326C33.6134 12.5902 33.3452 12.9194 33.1603 13.2972C31.5879 9.19488 28.0779 6.3387 23.9997 6.3387C19.8336 6.3387 16.3798 9.29304 14.8452 13.2809C14.8432 13.2863 14.8412 13.2918 14.8391 13.2974C14.6543 12.9196 14.386 12.5903 14.0585 12.3327C14.5577 7.28717 18.8254 3.33288 23.9998 3.33288Z" fill="url(#paint1_linear)"/>
<defs>
<linearGradient id="paint0_linear" x1="23.9999" y1="29" x2="23.9999" y2="77.5" gradientUnits="userSpaceOnUse">
<stop stop-color="#FDC00D"/>
<stop offset="1" stop-color="#FFAE34"/>
</linearGradient>
<linearGradient id="paint1_linear" x1="23.9998" y1="0" x2="23.9998" y2="33.1076" gradientUnits="userSpaceOnUse">
<stop stop-color="#F3FF6C"/>
<stop offset="1" stop-color="#FFB800"/>
</linearGradient>
</defs>
</svg>
