<svg width="22" height="22" viewBox="0 0 22 22" fill="none" xmlns="http://www.w3.org/2000/svg">
<path d="M21.4468 8.24025C21.3119 7.80316 20.9393 7.50107 20.4961 7.45607L14.4965 6.89686L12.1263 1.16323C11.9529 0.738995 11.5547 0.469055 11.1114 0.469055C10.6682 0.469055 10.2699 0.738995 10.0965 1.16323L7.72627 6.89686L1.72036 7.45607C1.28357 7.50107 0.910945 7.80958 0.769629 8.24025C0.634736 8.67734 0.763211 9.153 1.09723 9.45511L5.63222 13.5625L4.2961 19.6432C4.19332 20.0931 4.36035 20.5495 4.72007 20.8195C4.91277 20.9673 5.14402 21.038 5.36884 21.038C5.56797 21.038 5.76067 20.9866 5.93411 20.8773L11.1114 17.6827L16.2823 20.8773C16.6613 21.1087 17.143 21.0895 17.4963 20.8195C17.856 20.5495 18.0295 20.0931 17.9267 19.6432L16.5906 13.5625L21.1256 9.45511C21.4596 9.153 21.5881 8.67734 21.4468 8.24025Z" fill="#574488"/>
</svg>
