<svg width="502" height="473" viewBox="0 0 502 473" fill="none" xmlns="http://www.w3.org/2000/svg">
<path d="M469.708 309.588C459.449 293.398 439.234 287.816 424.553 297.117C409.874 306.419 406.289 327.083 416.548 343.271C424.761 356.238 464.041 382.877 479.359 392.97C481.852 394.613 485.136 392.645 484.861 389.674C483.138 371.104 477.948 322.595 469.708 309.588Z" fill="#FC311D"/>
<path d="M457.795 307.809C450.711 296.626 436.746 292.77 426.607 299.194C416.467 305.619 413.992 319.894 421.077 331.075C426.276 339.28 450.285 355.31 462.702 363.263C465.704 365.187 469.582 362.729 469.125 359.194C467.234 344.57 462.995 316.014 457.795 307.809Z" fill="#FFB600"/>
<path d="M446.026 305.708C441.623 298.762 432.949 296.367 426.65 300.357C420.352 304.348 418.813 313.215 423.216 320.161C426.073 324.672 438.087 332.993 446.157 338.271C449.166 340.239 453.097 337.749 452.603 334.187C451.276 324.636 448.885 310.219 446.026 305.708Z" fill="#FFFF00"/>
<path d="M441.21 295.039C436.701 295.039 432.226 296.151 428.159 298.496C421.635 302.264 417.113 308.63 415.426 316.428C413.715 324.333 415.116 332.747 419.371 340.118C424.396 348.824 447.246 367.767 480.499 390.793C480.884 391.061 481.232 390.961 481.456 390.833C481.68 390.704 481.938 390.452 481.901 389.984C478.594 349.675 473.621 320.412 468.596 311.706C462.487 301.119 451.754 295.039 441.21 295.039ZM481.003 397.06C479.615 397.06 478.232 396.64 477.027 395.805C456.775 381.781 421.668 356.294 414.092 343.164C409.078 334.48 407.436 324.528 409.467 315.137C411.522 305.639 417.078 297.854 425.113 293.217C441.594 283.704 463.471 290.629 473.876 308.659C481.455 321.786 485.962 364.935 487.976 389.485C488.2 392.207 486.869 394.748 484.504 396.113C483.406 396.747 482.202 397.06 481.003 397.06Z" fill="#371A45"/>
<path d="M442.287 291.215C439.648 299.635 435.176 304.947 430.398 308.278C420.956 314.885 410.317 313.78 410.317 313.78L401.149 304.201L412.383 296.785L435.846 281.293L442.287 291.215Z" fill="#04AAFF"/>
<path d="M434.782 299.718C435.99 296.374 435.922 292.675 434.602 289.351C435.151 288.61 435.638 287.9 436.067 287.238L438.933 291.649C437.807 294.835 436.385 297.496 434.782 299.718Z" fill="#B3E5FF"/>
<path d="M411.691 310.806C416.061 310.922 432.425 310.064 438.932 291.649L434.959 285.533L405.878 304.735L411.691 310.806ZM411.856 316.879C410.718 316.879 410.046 316.816 410.006 316.812L408.892 316.697L396.421 303.672L436.727 277.06L445.625 290.76L445.198 292.129C438.027 315.044 418.048 316.879 411.856 316.879Z" fill="#371A45"/>
<path d="M362.932 136.402C351.235 149.638 335.246 164.567 315.279 175.678C309.763 178.751 303.948 181.531 297.829 183.901C294.955 175.656 292.716 167.592 291.039 159.926C285.941 136.707 285.848 117.098 288.203 107.107C289.018 103.587 290.148 101.262 291.466 100.387C296.746 96.9033 320.408 104.585 346.494 123.302C351.912 127.189 357.437 131.555 362.932 136.402Z" fill="#ED1B24"/>
<path d="M354.832 140.709C349.444 136.074 344.036 131.855 338.728 128.04C331.497 122.852 324.433 118.424 317.809 114.76C316.632 112.187 315.256 109.883 313.73 107.844C322.283 111.534 332.941 117.327 344.715 125.775C349.465 129.182 354.121 132.839 358.594 136.669C357.349 138.042 356.094 139.39 354.832 140.709Z" fill="#FABABD"/>
<path d="M295.237 102.526C294.249 102.526 293.544 102.666 293.145 102.929C290.183 105.084 286.897 126.859 294.013 159.271C295.524 166.158 297.427 173.075 299.678 179.876C320.671 171.153 340.463 156.639 358.594 136.67C354.122 132.839 349.465 129.182 344.716 125.776C321.016 108.77 301.845 102.526 295.237 102.526ZM295.986 187.887L294.948 184.905C292.163 176.909 289.845 168.725 288.059 160.579C281.547 130.921 282.321 102.778 289.785 97.8414C297.39 92.8242 323.623 103.137 348.271 120.821C354.01 124.941 359.622 129.413 364.947 134.114L367.234 136.132L365.213 138.417C345.036 161.257 322.733 177.516 298.929 186.745L295.986 187.887Z" fill="#371A45"/>
<path d="M435.846 281.293C435.846 281.293 432.319 290.118 422.708 296.595C420.749 297.914 418.769 299.004 416.826 299.911C408.526 303.782 401.149 304.202 401.149 304.202C401.149 304.202 386.236 297.563 378.089 291.764C374.53 289.218 370.903 286.384 367.237 283.252C363.946 280.448 360.616 277.4 357.285 274.153C354.198 271.143 351.105 267.957 348.026 264.605C338.187 253.874 328.44 241.438 319.334 227.645C309.861 213.302 302.859 198.334 297.829 183.901C303.948 181.53 309.763 178.75 315.279 175.678C335.246 164.567 351.235 149.638 362.932 136.402C375.2 147.222 387.279 160.429 397.552 175.992C406.658 189.777 414.288 203.632 420.278 216.884C422.153 221.036 423.874 225.136 425.428 229.161C427.105 233.497 428.599 237.749 429.887 241.887C431.319 246.474 432.508 250.933 433.446 255.201C435.596 264.978 435.846 281.293 435.846 281.293Z" fill="white"/>
<path d="M301.684 185.643C306.957 200.094 313.742 213.645 321.876 225.963C330.669 239.281 340.222 251.588 350.272 262.541C353.28 265.815 356.357 268.989 359.414 271.97C362.68 275.156 365.978 278.171 369.215 280.933C372.746 283.949 376.328 286.757 379.862 289.282C386.667 294.129 398.636 299.708 401.675 301.095C404.173 300.82 412.949 299.502 421.005 294.07C428.45 289.051 431.904 282.542 432.781 280.683C432.708 277.563 432.287 264.126 430.472 255.856C429.553 251.686 428.378 247.29 426.978 242.795C425.707 238.723 424.229 234.504 422.584 230.259C421.066 226.327 419.356 222.25 417.497 218.137C411.396 204.639 403.83 191.024 395.008 177.671C386.196 164.321 375.493 151.897 363.169 140.703C344.318 161.478 323.658 176.578 301.684 185.643ZM400.586 307.29L399.91 306.989C399.29 306.712 384.624 300.158 376.321 294.246C372.641 291.615 368.921 288.699 365.257 285.57C361.919 282.722 358.521 279.613 355.158 276.334C352.021 273.276 348.866 270.022 345.78 266.666C335.513 255.472 325.758 242.908 316.788 229.322C307.864 215.807 300.517 200.864 294.948 184.908L293.978 182.126L296.725 181.062C319.614 172.19 341.118 156.483 360.646 134.382L362.661 132.099L364.946 134.114C378.628 146.181 390.455 159.704 400.096 174.311C409.096 187.933 416.819 201.834 423.053 215.627C424.958 219.843 426.714 224.025 428.27 228.058C429.963 232.429 431.487 236.778 432.799 240.981C434.25 245.641 435.47 250.205 436.426 254.546C438.614 264.509 438.88 280.571 438.891 281.252L438.899 281.861L438.674 282.428C438.516 282.824 434.686 292.2 424.413 299.125C413.509 306.476 401.817 307.22 401.323 307.248L400.586 307.29Z" fill="#371A45"/>
<path d="M351.751 268.864C350.008 268.864 348.957 268.773 348.766 268.754L349.349 262.686C349.559 262.706 371.151 264.481 392.932 248.17C412.488 233.527 418.298 216.963 418.354 216.796L424.131 218.743C423.881 219.489 417.759 237.198 396.586 253.051C377.511 267.334 358.862 268.864 351.751 268.864Z" fill="#371A45"/>
<path d="M412.33 310.815C412.096 310.815 411.882 310.811 411.691 310.806L407.385 306.309C410.75 305.56 415.17 304.227 419.751 301.875C422.535 303.701 425.101 305.269 427.428 306.612C421.474 310.309 415.261 310.815 412.33 310.815Z" fill="#1678BE"/>
<path d="M414.288 313.774C411.179 311.593 408.155 309.229 405.351 306.719C405.972 306.607 406.655 306.472 407.385 306.309L411.691 310.807C411.882 310.812 412.096 310.815 412.33 310.815C415.261 310.815 421.474 310.309 427.428 306.612C428.466 307.211 429.457 307.766 430.398 308.279C424.55 312.372 418.242 313.504 414.288 313.774Z" fill="#371A45"/>
<path d="M401.675 301.095C400.938 300.759 399.674 300.176 398.088 299.418C390.56 291.127 382.388 280.319 376.147 271.653C375.808 269.341 375.356 267.03 374.791 264.726C377.343 263.835 380.006 262.755 382.738 261.451C393.4 277.14 402.562 289.655 412.383 296.787C412.892 297.154 413.397 297.517 413.896 297.87C408.334 300.186 403.438 300.9 401.675 301.095Z" fill="#B9AFBE"/>
<path d="M405.351 306.719C404.274 305.756 403.229 304.77 402.223 303.767C400.878 302.425 399.495 300.965 398.088 299.417C399.674 300.175 400.938 300.758 401.675 301.094C403.437 300.9 408.334 300.186 413.896 297.869C414.893 298.578 415.87 299.259 416.826 299.911C417.826 300.597 418.801 301.25 419.751 301.875C415.17 304.228 410.75 305.56 407.385 306.309C406.655 306.472 405.972 306.607 405.351 306.719Z" fill="#371A45"/>
<path d="M310.938 174.581C314.026 171.893 316.846 168.27 319.136 163.648C320.049 165.15 320.977 166.666 321.91 168.187C318.295 170.503 314.638 172.634 310.938 174.581Z" fill="#AD1B30"/>
<path d="M373.08 258.815C372.662 257.557 372.207 256.303 371.719 255.052C368.739 247.44 365.208 241.092 361.269 235.599C361.26 234.015 361.089 232.604 360.793 231.347C360.793 231.349 360.791 231.352 360.79 231.354C359.041 224.035 352.873 221.976 348.583 221.449C342.918 216.258 336.85 211.74 330.651 207.124C327.91 205.084 325.154 203.033 322.415 200.9C319.819 195.943 317.34 190.933 314.913 185.879C314.096 184.142 313.284 182.398 312.485 180.648C316.748 178.458 320.958 176.033 325.107 173.379C339.693 196.97 355.834 221.878 368.123 239.821C372.062 245.57 375.752 251.09 379.267 256.312C377.149 257.284 375.078 258.112 373.08 258.815Z" fill="#B9AFBE"/>
<path d="M312.485 180.647C311.673 178.869 310.873 177.083 310.094 175.285C310.378 175.058 310.659 174.823 310.938 174.58C314.639 172.633 318.296 170.503 321.911 168.187C322.968 169.909 324.03 171.637 325.107 173.379C320.958 176.033 316.748 178.457 312.485 180.647Z" fill="#371A45"/>
<path d="M374.791 264.726C374.304 262.75 373.735 260.778 373.08 258.816C375.078 258.112 377.149 257.284 379.267 256.313C380.443 258.058 381.601 259.774 382.738 261.451C380.006 262.755 377.343 263.835 374.791 264.726Z" fill="#371A45"/>
<path d="M350.731 411.131C337.949 420.161 310.203 419.049 314.57 381.837C314.57 381.837 287.821 378.721 265.949 368.219C255.083 362.998 245.42 355.958 240.84 346.569L298.993 259.572C298.993 259.572 313.709 294.237 326.168 312.329C333.295 322.67 343.726 332.067 352.735 338.163C355.188 339.824 357.535 341.242 359.685 342.362C374.919 350.326 368.075 398.877 350.731 411.131Z" fill="white"/>
<path d="M335.521 412.764C332.285 412.764 329.049 412.055 326.241 410.385C318.933 406.04 315.944 396.293 317.601 382.195L317.956 379.167L314.927 378.813C314.789 378.796 311.424 378.386 306.199 377.416C308.736 376.588 311.389 375.615 314.094 374.493C314.521 374.627 314.983 374.717 315.479 374.75C318.555 374.96 321.431 375.041 324.032 375.041C332.589 375.041 338.179 374.171 338.179 374.171C324.76 397.681 334.854 407.064 346.314 407.066C348.057 407.066 349.831 406.849 351.559 406.43C350.729 407.266 349.866 408.006 348.973 408.638C345.523 411.077 340.518 412.764 335.521 412.764ZM296.494 375.37C285.768 372.831 272.236 368.689 261.224 362.298C269.032 364.105 276.917 365.011 284.742 365.011C292.191 365.011 299.589 364.189 306.815 362.534C313.825 360.929 320.556 358.59 326.905 355.576C327.656 356.183 328.433 356.768 329.242 357.337C324.456 360.054 319.369 362.375 314.035 364.245C310.903 365.342 309.894 368.411 310.659 370.951C305.705 372.922 300.851 374.398 296.494 375.37Z" fill="#B9AFBE"/>
<path d="M335.518 418.86C331.248 418.86 326.942 417.895 323.127 415.627C316.8 411.866 309.788 403.418 311.255 384.468C298.668 382.616 250.81 373.955 238.099 347.903C237.36 346.389 237.989 344.565 239.501 343.826C241.014 343.089 242.84 343.716 243.577 345.228C256.484 371.68 314.344 378.743 314.927 378.813L317.956 379.167L317.601 382.195C315.944 396.293 318.933 406.04 326.241 410.385C333.386 414.634 343.285 412.656 348.973 408.638C359.746 401.027 366.039 377.569 364.951 361.276C364.39 352.899 361.957 346.991 358.274 345.067C348.301 339.854 333.216 327.927 323.659 314.057C311.164 295.919 296.796 262.187 296.191 260.76C295.533 259.211 296.255 257.422 297.807 256.764C299.356 256.107 301.145 256.83 301.803 258.379C301.948 258.722 316.536 292.973 328.68 310.598C337.647 323.613 351.77 334.788 361.098 339.663C366.873 342.681 370.307 350.014 371.034 360.87C372.256 379.153 365.096 404.712 352.492 413.617C348.057 416.75 341.829 418.86 335.518 418.86Z" fill="#371A45"/>
<path d="M294.659 380.37C293.582 380.37 292.623 379.606 292.415 378.509C292.178 377.269 292.994 376.072 294.234 375.837C312.729 372.32 342.431 358.844 348.451 336.136C348.775 334.915 350.023 334.187 351.247 334.511C352.469 334.835 353.195 336.087 352.872 337.307C345.796 363.991 311.979 377.117 295.088 380.328C294.944 380.356 294.801 380.37 294.659 380.37Z" fill="#371A45"/>
<path d="M314.486 379.338L321.065 378.984C323.269 378.823 325.475 378.671 327.639 378.296C329.799 377.93 331.933 377.403 333.942 376.558C335.97 375.737 337.844 374.559 339.488 372.93L339.494 372.923C339.627 372.794 339.84 372.794 339.971 372.927C340.071 373.027 340.094 373.176 340.042 373.298C339.072 375.532 337.342 377.477 335.331 378.956C333.312 380.448 331.035 381.543 328.701 382.352C326.362 383.161 323.955 383.735 321.527 384.007C320.314 384.15 319.096 384.231 317.875 384.229C316.641 384.232 315.47 384.18 314.162 383.977C312.89 383.779 312.018 382.585 312.218 381.312C312.389 380.204 313.317 379.399 314.395 379.341L314.486 379.338Z" fill="#371A45"/>
<path d="M191.146 313.381C184.76 318.525 178.495 322.511 173.649 324.697C132.871 343.094 111.983 306.629 115.953 288.012C121.317 262.878 146.457 273.417 146.457 273.417C155.625 272.465 163.452 267.908 168.588 258.574C174.883 247.156 177.154 228.6 172.94 200.746C172.247 196.167 171.377 191.328 170.327 186.23L178.174 197.546L218.839 256.181C228.403 274.819 209.283 298.773 191.146 313.381Z" fill="white"/>
<path d="M152.366 326.72C143.24 326.72 136.517 323.29 131.922 319.584C127.521 316.038 124.2 311.518 121.966 306.833C128.104 313 136.629 317.344 147.366 317.344C153.698 317.344 160.798 315.835 168.634 312.298C168.679 312.279 168.723 312.258 168.769 312.239C172.504 310.539 175.388 307.733 177.224 304.377C177.63 305.273 178.099 306.15 178.626 306.994L183.741 315.19C179.656 318.089 175.752 320.404 172.396 321.918C164.73 325.377 158.078 326.72 152.366 326.72ZM178.593 289.556C178.446 289.105 178.28 288.655 178.098 288.21C174.568 279.63 171.804 270.995 169.637 262.727C170.593 261.291 171.468 259.752 172.263 258.114C173.266 262.336 174.421 266.69 175.75 271.114C177.292 276.248 178.99 281.194 180.834 285.94L180.372 286.598C180.013 287.111 179.831 287.701 179.832 288.294C179.398 288.695 178.983 289.115 178.593 289.556Z" fill="#B9AFBE"/>
<path d="M152.346 332.761C143.313 332.761 135.052 329.939 128.095 324.332C115.345 314.053 110.789 297.618 112.973 287.374C114.698 279.289 118.51 273.652 124.303 270.622C133.24 265.95 143.88 269.229 146.849 270.307C153.979 269.393 159.686 266.065 163.823 260.406C173.379 247.334 174.596 221.898 167.342 186.846C167 185.197 168.061 183.583 169.708 183.243C171.359 182.902 172.971 183.961 173.311 185.61C181.035 222.922 179.498 249.296 168.746 264.005C163.411 271.298 156.019 275.487 146.772 276.453L145.997 276.534L145.277 276.233C145.179 276.192 134.817 271.984 127.104 276.038C123.01 278.19 120.261 282.432 118.936 288.644C117.105 297.231 121.462 311.152 131.922 319.584C139.393 325.608 152.481 330.904 172.396 321.918C186.432 315.584 210.021 295.281 216.553 276.602C219.065 269.421 218.921 263.019 216.125 257.573C215.357 256.076 215.949 254.238 217.445 253.47C218.944 252.703 220.78 253.291 221.55 254.79C225.137 261.78 225.391 269.796 222.309 278.614C214.963 299.617 189.616 320.836 174.902 327.474C167.079 331.005 159.473 332.761 152.346 332.761Z" fill="#371A45"/>
<path d="M324.408 353.357C302.675 363.325 275.887 365.521 248.49 355.278C199.489 336.958 180.576 285.434 173.283 248.399C168.695 225.125 168.695 207.575 168.695 207.575L277.83 140.863C283.676 160.669 291.678 174.319 300.648 184.805C317.831 204.93 338.529 213.45 354.219 231.618C359.699 237.965 364.569 245.488 368.455 255.097C368.6 255.448 368.746 255.806 368.882 256.164C370.116 259.319 371.107 262.482 371.871 265.637C380.702 302.056 358.93 337.515 324.408 353.357Z" fill="white"/>
<path d="M284.878 359.046C273.804 359.044 261.951 357.057 249.562 352.425C246.407 351.245 243.384 349.92 240.485 348.465L250.458 346.976C260.666 350.118 270.749 351.567 280.462 351.567C293.777 351.567 306.402 348.845 317.744 344.029C317.921 344.542 318.126 345.046 318.357 345.542C318.358 345.545 318.36 345.549 318.36 345.552C318.364 345.559 318.367 345.566 318.371 345.573C318.873 346.645 319.5 347.671 320.253 348.625C320.471 348.905 320.703 349.178 320.942 349.446C321.345 349.988 321.769 350.521 322.212 351.04C311.297 355.951 298.696 359.046 284.878 359.046Z" fill="#B9AFBE"/>
<path d="M171.776 209.263C171.96 215.953 173.211 241.549 181.632 269.504C190.54 299.075 209.557 337.466 249.562 352.424C292.602 368.518 329.175 352.689 349.052 332.508C369.857 311.384 376.209 283.258 366.039 257.273C357.096 234.415 342.482 223.535 327.01 212.013C307.876 197.766 288.11 183.047 276.075 145.513L171.776 209.263ZM284.742 365.011C272.27 365.011 259.652 362.706 247.426 358.135C213.871 345.588 189.086 315.496 175.75 271.113C165.761 237.869 165.647 208.793 165.647 207.573V205.863L279.633 136.193L280.757 140.004C292.078 178.405 311.689 193.005 330.651 207.123C346.842 219.18 362.137 230.569 371.718 255.051C382.787 283.342 375.939 313.897 353.395 336.786C340.845 349.527 324.738 358.431 306.815 362.534C299.589 364.188 292.191 365.011 284.742 365.011Z" fill="#371A45"/>
<path d="M195.913 250.819C189.462 250.819 182.978 250.245 176.529 249.051C175.909 245.982 175.368 243.003 174.899 240.148C178.244 240.447 181.6 240.596 184.96 240.596C207.231 240.596 229.596 234.064 249.464 221.546C252.212 219.815 254.878 217.99 257.462 216.077C257.629 216.368 257.797 216.656 257.966 216.945C258.441 217.784 258.938 218.607 259.432 219.433C259.941 220.252 260.489 221.049 261.021 221.854C261.548 222.663 262.112 223.449 262.662 224.242L263.493 225.427L264.395 226.574C264.643 226.88 264.892 227.186 265.142 227.491C245.254 242.229 220.835 250.819 195.913 250.819Z" fill="#B9AFBE"/>
<path d="M176.529 249.052C175.443 248.853 174.365 248.636 173.283 248.399C172.699 245.439 172.191 242.573 171.746 239.821C172.795 239.946 173.847 240.056 174.899 240.149C175.368 243.004 175.909 245.983 176.529 249.052Z" fill="#371A45"/>
<path d="M87.8115 182.99C178.034 310.395 359.401 191.442 286.223 60.1054C196.96 -72.504 9.60239 50.6329 87.8115 182.99Z" fill="white"/>
<path d="M87.8115 182.99C178.034 310.395 359.401 191.442 286.223 60.1054C196.96 -72.504 9.60239 50.6329 87.8115 182.99Z" fill="white"/>
<path d="M87.8115 182.99C178.034 310.395 359.401 191.442 286.223 60.1054C196.96 -72.504 9.60239 50.6329 87.8115 182.99Z" fill="white"/>
<path d="M89.6894 181.772C135.083 245.807 201.198 245.609 246.6 217.001C290.955 189.053 321.662 128.405 284.315 61.2769C239.646 -5.00941 170.894 -4.63828 125.9 23.7651C80.462 52.4469 49.7605 114.115 89.6894 181.772ZM184.96 239.696C178.778 239.696 172.606 239.19 166.494 238.162C135.047 232.881 107.207 214.249 85.9866 184.282L85.8864 184.128C67.3336 152.73 62.2543 119.629 71.1976 88.4023C79.1778 60.5399 97.7565 36.2416 123.512 19.9839C149.212 3.76108 178.948 -2.41325 207.248 2.59869C239.158 8.25137 267.108 27.7057 288.077 58.8576L288.175 59.0169C305.56 90.2177 309.938 122.91 300.837 153.558C292.698 180.97 274.282 204.845 248.982 220.786C229.262 233.212 207.063 239.696 184.96 239.696Z" fill="#371A45"/>
<path d="M175.244 231.473C163.061 231.473 150.405 229.09 137.986 223.523C136.207 222.639 134.443 221.699 132.683 220.699C145.088 224.703 157.479 226.725 169.617 226.725C177.495 226.725 185.268 225.873 192.865 224.155C213.244 219.553 231.503 208.895 245.429 193.674C245.949 194.687 246.472 195.699 246.999 196.709C247.459 197.613 247.927 198.511 248.401 199.407C240.436 207.75 231.24 214.697 221.384 219.901C208.127 226.9 192.137 231.474 175.244 231.473ZM212.18 230.94C216.295 229.374 220.35 227.543 224.315 225.449C234.454 220.096 243.636 213.284 251.58 205.321C251.855 205.83 252.13 206.341 252.403 206.852C253.079 208.067 253.739 209.289 254.399 210.515C251.705 212.55 248.939 214.462 246.118 216.239C235.732 222.784 224.25 227.83 212.18 230.94Z" fill="#B4BAC4"/>
<path d="M90.4464 181.283C135.498 244.802 201.084 244.616 246.118 216.239C290.123 188.513 320.589 128.354 283.546 61.7471C239.212 -4.00348 171.011 -3.64633 126.38 24.526C81.3071 52.9784 50.8555 114.156 90.4464 181.283ZM184.96 240.597C178.729 240.597 172.506 240.086 166.346 239.051C134.656 233.727 106.614 214.968 85.2519 184.802L85.1108 184.585C66.4293 152.969 61.3188 119.624 70.3321 88.1549C78.3731 60.0788 97.0885 35.5968 123.031 19.2217C148.922 2.87813 178.887 -3.34175 207.406 1.71222C239.561 7.40865 267.716 26.9943 288.824 58.3545L288.963 58.5786C306.467 89.9965 310.873 122.929 301.702 153.814C293.498 181.435 274.947 205.49 249.464 221.547C229.596 234.065 207.231 240.597 184.96 240.597Z" fill="#293856"/>
<path d="M90.4464 181.283C135.498 244.802 201.084 244.616 246.118 216.239C290.123 188.513 320.589 128.354 283.546 61.7471C239.212 -4.00348 171.011 -3.64633 126.38 24.526C81.3071 52.9784 50.8555 114.156 90.4464 181.283ZM184.96 240.597C178.729 240.597 172.506 240.086 166.346 239.051C134.656 233.727 106.614 214.968 85.2519 184.802L85.1108 184.585C66.4293 152.969 61.3188 119.624 70.3321 88.1549C78.3731 60.0788 97.0885 35.5968 123.031 19.2217C148.922 2.87813 178.887 -3.34175 207.406 1.71222C239.561 7.40865 267.716 26.9943 288.824 58.3545L288.963 58.5786C306.467 89.9965 310.873 122.929 301.702 153.814C293.498 181.435 274.947 205.49 249.464 221.547C229.596 234.065 207.231 240.597 184.96 240.597Z" fill="#371A45"/>
<path d="M106.958 205.961C226.545 272.939 323.633 132.966 232.317 55.1C124.736 -25.9001 9.00851 106.729 106.958 205.961Z" fill="#371A45"/>
<path d="M73.5823 125.519C75.8563 249.382 253.212 255.709 269.718 142.127C214.47 210.071 108.128 184.701 73.5823 125.519Z" fill="#21102B"/>
<path d="M90.4257 181.255C129.825 240.016 185.595 238.798 221.384 219.902C262.522 198.18 292.121 146.123 269.099 88.649C257.431 61.5655 233.427 39.7828 203.273 28.9589C173.096 18.128 140.629 19.6773 114.148 33.2024C65.6997 69.8301 62.7468 139.274 90.4257 181.255ZM175.429 237.794C167.874 237.794 160.355 236.931 153.013 235.183C126.555 228.882 103.107 211.439 85.2063 184.737L85.193 184.716C70.0937 161.819 63.7392 132.025 67.7593 102.972C72.016 72.2109 87.227 45.5948 110.591 28.0259L110.805 27.8665L111.041 27.744C139.106 13.3156 173.497 11.607 205.391 23.0542C237.176 34.4628 262.508 57.4936 274.89 86.2419C286.163 114.383 286.377 143.131 275.536 169.451C265.709 193.31 247.519 213.197 224.315 225.449C208.857 233.611 192.055 237.794 175.429 237.794Z" fill="#371A45"/>
<path d="M108.879 203.44C170.207 237.577 223.291 216.055 248.737 179.513C271.842 146.338 275.107 95.7683 230.354 57.5493C176.634 17.1544 124.063 31.679 95.7863 64.009C67.6668 96.1587 59.819 153.461 108.879 203.44ZM169.617 226.725C148.567 226.725 126.751 220.642 105.425 208.697L105.038 208.48L104.725 208.164C81.1873 184.319 68.117 156.789 66.9273 128.555C65.8628 103.282 74.4348 78.8908 91.064 59.8794C107.316 41.2986 129.651 29.7481 153.957 27.3533C180.991 24.6907 208.736 33.4191 234.204 52.5952L234.353 52.7142C255.668 70.8889 268.334 93.6028 270.982 118.398C273.379 140.848 267.308 163.824 253.886 183.099C239.352 203.969 217.68 218.55 192.865 224.155C185.268 225.873 177.495 226.725 169.617 226.725Z" fill="#371A45"/>
<path d="M319.064 141.281C312.837 195.974 257.497 194.338 258.178 141.524C262.6 83.959 321.756 85.7027 319.064 141.281Z" fill="white"/>
<path d="M319.064 141.28H319.073H319.064ZM261.314 141.664C261.03 166.086 273.013 177.782 285.029 178.542C297.751 179.333 312.836 167.947 315.936 141.027C317.14 115.41 304.527 102.916 292.282 102.149C278.484 101.297 263.428 114.58 261.314 141.664ZM286.275 184.854C285.724 184.854 285.178 184.839 284.633 184.804C269.638 183.855 254.672 170.093 255.041 141.483L255.05 141.284C257.447 110.083 275.8 94.8231 292.674 95.8875C307.909 96.8416 323.647 111.501 322.198 141.433L322.18 141.636C318.767 171.616 301.504 184.854 286.275 184.854Z" fill="#371A45"/>
<path d="M321.301 144.244C316.209 188.562 274.73 188.037 275.275 145.319C278.68 98.1317 323.756 98.7531 321.301 144.244Z" fill="white"/>
<path d="M321.301 144.244H321.31H321.301ZM278.41 145.452C278.193 164.596 286.696 173.713 295.228 174.256C304.51 174.835 315.657 165.624 318.175 143.981C319.244 123.618 310.246 113.747 301.422 113.19C291.2 112.537 280.028 123.42 278.41 145.452ZM296.042 180.555C295.636 180.555 295.231 180.542 294.831 180.516C283.32 179.784 271.84 168.605 272.138 145.278L272.146 145.093C274.034 118.928 288.499 106.098 301.817 106.93C313.642 107.674 325.765 119.723 324.435 144.414L324.417 144.603C321.553 169.533 307.946 180.555 296.042 180.555Z" fill="#371A45"/>
<path d="M228.147 158.841C226.2 158.841 224.315 157.873 223.231 156.061C223.877 156.213 224.528 156.351 225.181 156.478C225.959 156.626 226.739 156.754 227.531 156.859C227.711 156.882 227.884 156.905 228.057 156.926C228.329 157.551 228.602 158.174 228.877 158.795C228.633 158.827 228.388 158.841 228.147 158.841Z" fill="#AFA3B5"/>
<path d="M90.6327 130.378C77.8052 69.9649 122.833 47.7358 156.173 47.7358C166.388 47.7358 175.498 49.819 181.52 53.5321C128.862 59.3615 106.839 92.9467 90.6327 130.378Z" fill="#AFA3B5"/>
<path d="M307.562 169.213C305.444 164.01 303.519 158.713 301.575 153.407C301.369 152.845 301.164 152.285 300.959 151.723C307.939 148.855 314.404 142.502 317.922 134.702C318.252 137.51 318.351 140.601 318.175 143.982C316.755 156.188 312.59 164.441 307.562 169.213Z" fill="#B9AFBE"/>
<path d="M308.405 171.286C308.212 170.815 308.021 170.344 307.832 169.871C307.741 169.652 307.652 169.432 307.563 169.213C312.59 164.441 316.755 156.188 318.175 143.982C318.352 140.601 318.252 137.51 317.923 134.702C318.586 133.231 319.145 131.708 319.582 130.148C323.18 148.845 317.229 163.65 308.405 171.286Z" fill="#371A45"/>
<path d="M147.942 270.758C148.64 271.161 149.058 271.455 149.57 271.815C150.044 272.167 150.522 272.517 150.954 272.903C151.406 273.274 151.83 273.668 152.243 274.068C152.672 274.459 153.064 274.877 153.447 275.306C154.984 277.009 156.369 278.851 157.449 280.857C159.72 284.812 161.003 289.241 161.47 293.642C161.547 294.745 161.671 295.846 161.699 296.943C161.694 298.041 161.684 299.137 161.656 300.228C161.507 302.528 161.034 304.86 160.117 307.009C158.319 311.333 154.503 314.705 150.13 315.481C149.988 315.505 149.853 315.41 149.827 315.269C149.813 315.181 149.843 315.097 149.9 315.039L149.927 315.015C152.924 312.088 155.068 308.944 156.15 305.523C156.679 303.802 156.854 302.006 156.793 300.18C156.705 299.209 156.633 298.241 156.57 297.274C156.47 296.313 156.281 295.37 156.145 294.421C155.996 293.474 155.7 292.565 155.497 291.637C155.27 290.718 154.921 289.84 154.646 288.94C154.293 288.071 153.934 287.205 153.536 286.363C153.088 285.547 152.724 284.686 152.202 283.919C151.262 282.322 150.123 280.859 148.887 279.511C148.575 279.177 148.267 278.837 147.933 278.529C147.609 278.209 147.282 277.895 146.937 277.608C146.599 277.305 146.252 277.034 145.909 276.756C145.589 276.507 145.16 276.208 144.971 276.083L144.759 275.943C143.353 275.022 142.959 273.137 143.88 271.731C144.768 270.378 146.555 269.967 147.942 270.758Z" fill="#371A45"/>
<path d="M138.486 271.444C138.486 271.444 153.384 275.089 158.946 289.332C158.946 289.332 164.723 288.938 165.82 282.391C167.1 274.748 160.968 263.653 150.067 262.872C141.795 262.28 138.486 271.444 138.486 271.444Z" fill="white"/>
<path d="M160.647 288.931C162.444 288.287 165.111 286.626 165.82 282.391C166.148 280.437 165.99 278.258 165.393 276.084C165.393 276.082 165.395 276.08 165.395 276.078C165.99 278.249 166.15 280.429 165.822 282.387C165.111 286.627 162.444 288.287 160.647 288.931Z" fill="#B9AFBE"/>
<path d="M139.975 268.57C140.225 268.181 140.509 267.775 140.825 267.367C140.509 267.775 140.225 268.181 139.975 268.57Z" fill="#3978BE"/>
<path d="M138.486 271.444C138.486 271.444 138.954 270.152 139.974 268.569C138.964 270.134 138.497 271.416 138.486 271.444Z" fill="#371A45"/>
<path d="M160.366 289.025C160.457 288.997 160.552 288.965 160.648 288.93C160.552 288.965 160.457 288.997 160.366 289.025Z" fill="#371A45"/>
<path d="M158.947 289.33C153.396 275.115 138.544 271.458 138.486 271.444C138.497 271.416 138.964 270.135 139.974 268.57C140.225 268.181 140.508 267.775 140.827 267.367C145.195 268.321 152.521 270.809 158.041 277.235C158.942 278.284 160.19 278.79 161.418 278.79C163.054 278.79 164.654 277.892 165.353 276.185C165.365 276.152 165.379 276.118 165.393 276.083C165.99 278.258 166.148 280.437 165.82 282.391C165.111 286.625 162.443 288.287 160.647 288.931C160.551 288.966 160.456 288.997 160.365 289.025C159.532 289.292 158.947 289.33 158.947 289.33Z" fill="#B9AFBE"/>
<path d="M142.21 269.919C146.89 271.751 155.683 276.344 160.441 286.193C161.539 285.622 162.816 284.432 163.23 281.957C163.799 278.564 162.5 274.256 159.923 270.98C157.356 267.721 153.79 265.771 149.88 265.49C146.032 265.223 143.56 267.838 142.21 269.919ZM157.201 292.082L156.5 290.288C151.523 277.542 137.993 274.028 137.856 273.995L135.036 273.289L136.017 270.553C136.179 270.103 140.106 259.521 150.254 260.253C155.658 260.64 160.558 263.295 164.049 267.733C167.552 272.185 169.224 277.967 168.41 282.825C167.272 289.622 161.838 291.767 159.124 291.952L157.201 292.082Z" fill="#371A45"/>
<path d="M329.804 217.771L273.533 234.186C253.879 209.816 230.132 154.054 230.132 154.054C230.132 154.054 223.557 153.82 216.134 150.466C210.587 147.959 204.566 143.707 200.466 136.512C199.155 134.234 198.042 131.65 197.203 128.732C188.967 100.131 222.482 78.8627 250.884 87.2376C295.534 100.413 291.014 165.06 329.804 217.771Z" fill="white"/>
<path d="M224.469 150.089C223.749 149.916 223.032 149.725 222.323 149.515C219.693 148.729 217.15 147.684 214.779 146.371C212.796 145.279 210.944 143.985 209.263 142.511C210.328 142.329 211.443 142.105 212.605 141.862C213.36 141.706 214.114 141.518 214.858 141.301C217.078 140.654 219.198 139.735 220.885 138.506C221.789 138.546 222.692 138.565 223.592 138.565C224.101 138.565 224.611 138.558 225.118 138.548C229.607 138.441 234.045 137.893 238.418 136.958C242.791 136.001 247.101 134.717 251.305 132.597C252.356 132.06 253.399 131.447 254.43 130.717C254.688 130.539 254.945 130.348 255.199 130.138C255.454 129.938 255.71 129.728 255.96 129.492C256.442 129.079 257.026 128.434 257.335 128.042C258.831 126.297 260.158 124.384 261.464 122.407C261.839 121.824 262.196 121.219 262.527 120.594C263.649 126.803 262.648 137.655 245.74 145.443C239.79 148.185 231.972 149.508 224.469 150.089Z" fill="#B9AFBE"/>
<path d="M328.985 218.377C326.779 216.314 324.677 214.131 322.826 211.766C320.881 209.459 319.206 206.968 317.543 204.465C314.366 199.374 311.496 194.094 308.967 188.671C304.028 177.77 299.921 166.585 295.848 155.495C291.783 144.405 287.944 133.278 283.002 122.827C280.525 117.614 277.752 112.583 274.44 108.016C271.149 103.436 267.234 99.401 262.709 96.2587L260.999 95.1015C260.44 94.6971 259.805 94.417 259.213 94.0669L257.41 93.0638L255.523 92.2218C254.889 91.9505 254.269 91.6459 253.625 91.3973L251.661 90.7285C251.004 90.515 250.357 90.2524 249.692 90.0791L247.699 89.5574C242.339 88.3425 236.728 88.1166 231.258 88.9622C225.782 89.7499 220.46 91.6021 215.674 94.305C210.89 97.0097 206.695 100.712 203.681 105.139C202.177 107.354 200.986 109.754 200.183 112.27C199.378 114.787 199 117.42 199.01 120.061C199.021 122.705 199.432 125.354 200.153 127.946C200.913 130.56 201.958 133.063 203.32 135.365C206.04 139.976 210.028 143.756 214.779 146.371C217.15 147.684 219.693 148.729 222.323 149.515C223.637 149.904 224.975 150.231 226.319 150.487C226.993 150.616 227.667 150.727 228.338 150.816C228.985 150.905 229.729 150.981 230.246 151.007L232.186 151.108L232.94 152.859C235.923 159.779 239.092 166.696 242.325 173.54C245.567 180.39 248.911 187.192 252.41 193.898C254.133 197.268 255.945 200.584 257.757 203.899C258.688 205.541 259.647 207.166 260.606 208.789C261.555 210.422 262.602 211.985 263.565 213.603C267.465 220.064 271.331 226.351 274.321 233.549L274.328 233.565C274.55 234.102 274.296 234.718 273.759 234.943C273.409 235.086 273.025 235.028 272.738 234.824C271.122 233.661 269.669 232.332 268.236 230.972C266.861 229.579 265.618 228.089 264.395 226.575L263.493 225.428L262.662 224.243C262.112 223.45 261.548 222.664 261.021 221.855C260.489 221.05 259.941 220.253 259.432 219.434C258.938 218.608 258.441 217.785 257.967 216.946C256.015 213.624 254.269 210.205 252.403 206.852C250.595 203.472 248.736 200.12 246.999 196.71C243.459 189.921 240.084 183.058 236.816 176.149C233.548 169.23 230.374 162.307 227.331 155.248L230.027 157.099C229.07 157.05 228.345 156.966 227.531 156.859C226.739 156.754 225.959 156.626 225.181 156.477C223.629 156.18 222.097 155.807 220.584 155.359C217.561 154.455 214.613 153.248 211.823 151.702C206.233 148.638 201.342 144.036 198.068 138.462C196.426 135.686 195.183 132.697 194.299 129.644C193.433 126.554 192.925 123.33 192.914 120.072C192.9 116.819 193.377 113.541 194.369 110.431C195.36 107.324 196.822 104.388 198.63 101.724C202.263 96.3917 207.177 92.1133 212.651 89.0112C218.134 85.9126 224.152 83.8312 230.356 82.9314C236.553 81.979 242.936 82.2224 249.081 83.6194L251.369 84.218C252.132 84.4194 252.858 84.7065 253.604 84.9498L255.826 85.7113C256.557 85.9932 257.266 86.3363 257.988 86.6461C258.705 86.9683 259.427 87.2781 260.139 87.6125L262.205 88.7556C262.882 89.153 263.604 89.4838 264.244 89.9408L266.201 91.2625C271.374 94.8547 275.777 99.4307 279.368 104.427C282.986 109.42 285.924 114.773 288.509 120.21C293.658 131.115 297.518 142.35 301.576 153.407C303.601 158.937 305.607 164.458 307.832 169.871C310.008 175.305 312.438 180.613 314.913 185.879C317.431 191.123 320.006 196.321 322.709 201.462C324.092 204.011 325.396 206.614 326.746 209.207C328.029 211.845 329.456 214.394 330.622 217.172L330.643 217.223C330.863 217.75 330.616 218.354 330.091 218.574C329.704 218.737 329.274 218.646 328.985 218.377Z" fill="#371A45"/>
<path d="M262.485 108.299C264.57 110.547 264.671 113.286 264.256 115.718C263.833 118.181 262.742 120.413 261.464 122.407C260.158 124.383 258.831 126.297 257.334 128.042C257.026 128.434 256.442 129.079 255.96 129.492C255.71 129.728 255.454 129.938 255.199 130.138C254.945 130.348 254.688 130.539 254.43 130.717C253.399 131.447 252.356 132.06 251.305 132.597C247.1 134.717 242.79 136 238.418 136.958C234.045 137.893 229.607 138.441 225.118 138.548C220.633 138.646 216.085 138.332 211.562 137.203C209.303 136.646 207.056 135.841 204.892 134.728C202.74 133.6 200.652 132.13 198.943 130.194C197.209 128.287 195.929 125.922 195.194 123.464C194.479 120.998 194.296 118.474 194.439 116.063C194.511 114.855 194.675 113.673 194.877 112.511C195.101 111.357 195.229 110.186 195.489 109.054C195.743 107.919 196.177 106.836 196.839 105.873C197.501 104.903 198.42 104.057 199.882 103.506C200.603 103.235 201.401 103.572 201.716 104.262L201.743 104.323C202.389 105.75 202.448 106.864 202.399 107.916C202.292 108.949 202.093 109.911 201.748 110.832C201.413 111.755 201.06 112.67 200.878 113.617C200.704 114.561 200.582 115.503 200.524 116.432C200.414 118.288 200.568 120.091 201.041 121.74C201.543 123.377 202.339 124.868 203.49 126.132C205.764 128.69 209.277 130.355 213.051 131.291C216.841 132.242 220.91 132.547 224.975 132.452C229.045 132.357 233.139 131.853 237.136 130.997C241.115 130.138 245.072 128.921 248.515 127.177C249.371 126.742 250.173 126.26 250.887 125.754C251.071 125.63 251.244 125.5 251.4 125.369C251.568 125.24 251.727 125.11 251.864 124.979C252.016 124.847 252.149 124.718 252.261 124.59C252.37 124.487 252.531 124.292 252.688 124.095C253.975 122.589 255.13 120.998 255.993 119.284C256.841 117.565 257.446 115.828 258.112 114.15C258.696 112.444 259.323 110.815 260.529 108.856L260.767 108.467C261.081 107.959 261.749 107.8 262.259 108.113C262.341 108.166 262.42 108.231 262.485 108.299Z" fill="#371A45"/>
<path d="M196.009 122.075C196.009 122.075 219.401 120.149 223.156 127.265C227.697 135.873 220.064 140.311 212.605 141.862C205.38 143.364 200.086 144.19 196.442 138.576C191.47 130.913 196.009 122.075 196.009 122.075Z" fill="white"/>
<path d="M209.263 142.511C209.263 142.511 209.263 142.511 209.263 142.509C210.328 142.327 211.441 142.103 212.605 141.861C213.358 141.704 214.114 141.518 214.858 141.301C214.114 141.518 213.36 141.705 212.605 141.861C211.443 142.105 210.328 142.329 209.263 142.511Z" fill="#8C7B94"/>
<path d="M205.785 142.938C206.881 142.875 208.04 142.719 209.263 142.509C209.263 142.511 209.263 142.511 209.263 142.511C208.04 142.721 206.881 142.875 205.785 142.938Z" fill="#371A45"/>
<path d="M198.728 141.14C197.904 140.496 197.142 139.656 196.442 138.577C195.708 137.448 195.183 136.293 194.819 135.144C195.183 136.293 195.71 137.448 196.442 138.576C197.142 139.656 197.904 140.496 198.728 141.14Z" fill="#371A45"/>
<path d="M204.734 142.97C202.446 142.97 200.451 142.485 198.728 141.14C197.903 140.496 197.142 139.656 196.442 138.576C195.71 137.448 195.183 136.293 194.819 135.145C193.805 131.946 194.045 128.799 194.567 126.392C194.917 127.839 195.512 129.312 196.442 130.737C198.604 134.066 201.349 135.129 204.734 135.129C207.052 135.129 209.669 134.63 212.605 134.021C217.032 133.098 221.521 131.164 223.488 127.939C226.895 135.262 221.288 139.425 214.858 141.301C214.114 141.518 213.358 141.704 212.605 141.862C211.441 142.103 210.327 142.327 209.263 142.509C208.039 142.719 206.88 142.875 205.785 142.938C205.427 142.959 205.077 142.97 204.734 142.97Z" fill="#B9AFBE"/>
<path d="M197.811 124.581C196.939 127.027 195.598 132.452 198.646 137.147C201.212 141.102 204.537 140.857 212.071 139.29C216.866 138.292 220.387 136.303 221.488 133.968C222.197 132.461 221.983 130.67 220.833 128.489C218.946 124.912 206.552 124.07 197.811 124.581ZM204.812 145.59C200.832 145.59 197.062 144.354 194.24 140.006C188.505 131.169 193.461 121.29 193.674 120.875L194.341 119.576L195.794 119.457C199.989 119.113 221.136 117.807 225.477 126.04C227.9 130.633 227.228 134.103 226.239 136.205C223.737 141.513 216.959 143.638 213.139 144.431C210.429 144.995 207.57 145.59 204.812 145.59Z" fill="#371A45"/>
<path d="M365.777 256.744C365.777 256.744 386.63 288.202 402.223 303.767C413.565 315.086 429.884 323.953 440.727 327.323C457.177 332.433 459.381 381.385 444.578 396.519C433.663 407.677 406.161 411.53 403.613 374.17C403.613 374.17 339.725 374.788 320.942 349.445C316.204 344.186 315.538 336.419 319.313 330.43L365.777 256.744Z" fill="white"/>
<path d="M426.321 404.233C425.836 404.233 425.35 404.218 424.865 404.184C425.348 404.218 425.833 404.233 426.316 404.233C433.285 404.233 440.24 400.953 444.578 396.519C446.935 394.108 448.862 390.841 450.368 387.029C448.864 390.841 446.938 394.111 444.578 396.522C440.244 400.955 433.289 404.233 426.321 404.233ZM406.358 388.468C404.962 384.574 403.998 379.848 403.609 374.17C403.611 374.17 403.613 374.17 403.613 374.17C403.999 379.849 404.962 384.574 406.358 388.468Z" fill="#3978BE"/>
<path d="M320.252 348.624C319.5 347.67 318.873 346.644 318.371 345.573C318.873 346.644 319.501 347.668 320.252 348.624ZM318.36 345.552C318.36 345.548 318.358 345.545 318.357 345.541C318.357 345.545 318.36 345.548 318.36 345.552Z" fill="#8C7B94"/>
<path d="M426.316 404.233C425.833 404.233 425.348 404.218 424.865 404.184C417.458 403.687 410.24 399.304 406.357 388.468C404.962 384.574 403.999 379.849 403.612 374.17H403.611C403.609 374.17 403.609 374.17 403.609 374.17C403.609 374.17 403.472 374.172 403.206 374.172C397.772 374.172 338.853 373.61 320.941 349.442C320.701 349.175 320.471 348.902 320.253 348.624C319.502 347.668 318.873 346.644 318.371 345.573C318.367 345.566 318.364 345.559 318.36 345.552C318.36 345.548 318.357 345.545 318.357 345.541C317.375 343.433 316.879 341.147 316.879 338.856C316.879 338.828 316.879 338.798 316.879 338.768C316.897 335.698 319.451 333.672 322.124 333.672C323.353 333.672 324.606 334.101 325.65 335.055C326.094 335.461 326.514 335.878 326.893 336.296C345.239 356.773 370.818 361.767 391.402 361.767C410.993 361.767 426.057 357.246 426.057 357.246C412.099 381.248 423.714 391.813 435.482 391.813C441.705 391.813 447.973 388.86 450.523 383.377C450.873 382.624 451.658 382.141 452.176 381.448C451.663 383.403 451.059 385.274 450.367 387.029C448.862 390.841 446.934 394.108 444.578 396.519C440.24 400.953 433.285 404.233 426.316 404.233Z" fill="#B9AFBE"/>
<path d="M426.256 407.271C423.58 407.271 420.887 406.844 418.288 405.885C411.336 403.324 402.835 396.246 400.817 377.205C387.95 377.004 336.087 374.73 318.597 351.399C317.849 350.577 314.989 347.179 314.18 342.47C313.895 340.812 315.008 339.235 316.667 338.949C318.318 338.664 319.903 339.777 320.188 341.439C320.762 344.775 323.12 347.312 323.143 347.336L323.391 347.63C341.03 371.43 402.972 371.129 403.583 371.123L406.457 371.095L406.653 373.965C407.621 388.148 412.374 397.207 420.397 400.166C428.285 403.074 437.438 399.46 442.399 394.387C451.521 385.063 453.433 360.986 449.445 345.208C447.356 336.943 443.848 331.485 439.822 330.235C429.08 326.896 412.105 317.898 400.159 306.014C379.472 288.446 366.407 259.171 365.861 257.932C365.182 256.391 365.878 254.593 367.419 253.912C368.958 253.235 370.757 253.93 371.438 255.47C371.568 255.761 384.54 284.805 404.192 301.441L404.376 301.609C415.597 312.809 431.554 321.28 441.632 324.412C447.911 326.364 452.657 333.037 455.357 343.714C459.833 361.423 457.445 387.724 446.758 398.652C442.017 403.495 434.211 407.271 426.256 407.271Z" fill="#371A45"/>
<path d="M240.021 178.101C238.85 178.101 237.854 177.206 237.747 176.019C237.633 174.762 238.559 173.651 239.818 173.537C253.835 172.269 290.995 165.335 294.559 148.699C294.824 147.465 296.037 146.681 297.273 146.944C298.507 147.208 299.295 148.423 299.03 149.657C294.032 172.977 242.423 177.892 240.228 178.09C240.159 178.097 240.089 178.101 240.021 178.101Z" fill="#371A45"/>
<path d="M383.183 375.393C382.071 375.393 381.098 374.582 380.925 373.451C380.736 372.203 381.59 371.039 382.836 370.846C382.978 370.824 391.84 369.346 400.451 362.097C412.019 352.358 417.731 337.312 417.425 317.378C417.405 316.116 418.412 315.076 419.674 315.057H419.711C420.957 315.057 421.976 316.058 421.995 317.308C422.407 344.078 412.001 358.433 403.199 365.759C393.592 373.756 383.936 375.303 383.53 375.366C383.412 375.384 383.297 375.393 383.183 375.393Z" fill="#371A45"/>
<path d="M403.303 371.868L405.127 371.344C405.762 371.162 406.391 370.954 407.023 370.745C407.658 370.553 408.271 370.289 408.903 370.082C409.53 369.858 410.13 369.574 410.755 369.349C413.197 368.305 415.566 367.088 417.738 365.555L418.547 364.969C418.823 364.779 419.095 364.585 419.338 364.358L420.861 363.052C421.339 362.586 421.782 362.084 422.262 361.606C422.491 361.359 422.745 361.128 422.96 360.867L423.576 360.06C425.367 357.977 426.586 355.477 427.848 352.9L427.862 352.872C427.942 352.707 428.144 352.639 428.308 352.72C428.441 352.784 428.511 352.928 428.492 353.068C428.068 355.934 427.368 358.896 425.91 361.551L425.397 362.567C425.215 362.899 424.991 363.204 424.788 363.524C424.368 364.156 423.961 364.809 423.501 365.417L422.02 367.171C421.54 367.778 420.942 368.254 420.395 368.797C418.148 370.88 415.59 372.662 412.814 373.953C411.425 374.593 410 375.162 408.528 375.581C407.798 375.806 407.051 375.982 406.296 376.139C405.524 376.291 404.812 376.403 403.921 376.477C402.643 376.582 401.521 375.631 401.416 374.353C401.321 373.23 402.044 372.226 403.089 371.927L403.303 371.868Z" fill="#371A45"/>
<path d="M181.229 289.187L185.32 283.354C187.311 280.514 190.126 278.356 193.383 277.169L247.837 257.336C248.737 257.014 251.209 268.642 251.524 269.545L246.066 283.81L181.229 289.187Z" fill="white"/>
<path d="M246.805 260.042L194.133 279.225C191.281 280.263 188.853 282.126 187.111 284.608L185.702 286.62L244.513 281.743L249.226 269.427C249.135 269.061 249.014 268.557 248.842 267.841C248.431 266.122 247.489 262.185 246.805 260.042ZM182.162 287.854H182.171H182.162ZM183.957 289.109L183.955 289.111L183.957 289.109ZM182.78 291.243C181.723 291.243 180.76 290.69 180.228 289.76C179.652 288.756 179.708 287.544 180.371 286.597L183.528 282.096C185.788 278.875 188.937 276.459 192.634 275.113L247.09 255.281C247.715 255.057 248.405 255.111 248.988 255.426C250.189 256.075 250.773 257.103 253.1 266.822C253.303 267.677 253.534 268.645 253.599 268.848L253.825 269.573L253.567 270.325L247.617 285.876L183.031 291.233C182.947 291.24 182.863 291.243 182.78 291.243Z" fill="#371A45"/>
<path d="M287.121 326.647C278.319 333.103 264.358 343.223 264.038 342.712L251.883 321.054L224.959 273.075C224.784 272.762 239.454 262.078 247.836 257.338C251.349 255.349 255.243 260.126 257.545 263.778L274.569 290.625L289.139 313.602C291.96 318.029 291.076 323.745 287.121 326.647Z" fill="white"/>
<path d="M273.21 334.031C273.221 331.99 272.668 329.956 271.563 328.156L252.17 296.526C254.502 297.306 257.235 297.913 260.084 297.913C262.668 297.913 265.35 297.416 267.922 296.094C269.429 299.005 272.237 301.132 277.246 301.132C277.253 301.132 277.261 301.132 277.268 301.132C277.706 301.132 278.154 301.117 278.613 301.087L287.294 314.776C289.491 318.227 288.845 322.665 285.823 324.883C280.428 328.839 276.326 331.806 273.21 334.031Z" fill="#B9AFBE"/>
<path d="M227.734 273.557L264.901 339.784C267.14 338.341 272.586 334.591 285.824 324.883C288.845 322.665 289.491 318.227 287.294 314.776L255.698 264.949C253.004 260.673 250.341 258.435 248.916 259.241C241.968 263.172 231.288 270.809 227.734 273.557ZM264.081 344.929C263.924 344.929 263.791 344.902 263.649 344.876L262.712 344.696L262.126 343.78L223.046 274.147C222.06 272.351 223.282 271.428 225.96 269.406C227.553 268.202 229.673 266.665 231.928 265.079C234.666 263.153 241.593 258.357 246.761 255.433C248.995 254.167 253.608 253.42 259.399 262.61L290.988 312.429C294.417 317.814 293.288 324.835 288.411 328.412C268.064 343.336 265.321 344.929 264.081 344.929Z" fill="#371A45"/>
<path d="M263.39 342.826L219.114 349.442C212.118 349.457 207.096 348.467 203.071 342.019L201.021 338.735L180.483 305.836C179.097 303.618 178.213 301.264 177.808 298.984C176.865 293.582 180.447 289.97 185.492 286.8L222.52 273.273C228.441 271.108 235.07 273.28 238.568 278.523L242.433 284.825L269.699 329.299C273.053 334.765 269.73 341.883 263.39 342.826Z" fill="white"/>
<path d="M218.949 347.257C212.294 347.252 208.283 346.24 204.925 340.86L203.765 339.003C205.02 339.094 206.338 339.148 207.702 339.148C216.957 339.148 228.366 336.669 236.832 326.708C237.18 326.3 237.514 325.884 237.835 325.462L244.92 321.798C247.579 320.422 249.235 317.653 249.58 314.001C249.889 310.718 249.089 307.033 247.327 303.623C246.555 302.13 245.632 300.758 244.599 299.548C244.47 296.637 244.142 293.783 243.698 291.077L267.833 330.444C269.041 332.412 269.174 334.742 268.197 336.836C267.222 338.929 265.352 340.324 263.068 340.666L218.949 347.257Z" fill="#B9AFBE"/>
<path d="M186.465 288.772C181.215 292.112 179.331 294.971 179.967 298.608C180.327 300.67 181.148 302.769 182.337 304.676L204.925 340.861C208.283 346.24 212.293 347.252 218.949 347.257L263.068 340.666C265.352 340.325 267.222 338.93 268.197 336.836C269.174 334.742 269.041 332.412 267.833 330.445L236.7 279.665C233.801 275.318 228.259 273.505 223.273 275.325L186.465 288.772ZM219.112 349.446H219.121H219.112ZM218.961 351.634C212.628 351.634 206.056 350.939 201.212 343.178L178.626 306.994C177.14 304.613 176.112 301.975 175.655 299.361C174.403 292.203 179.632 287.896 184.329 284.943L184.525 284.821L221.771 271.215C228.663 268.698 236.318 271.203 240.387 277.309L271.563 328.157C273.524 331.351 273.748 335.287 272.164 338.685C270.579 342.083 267.421 344.441 263.714 344.996L219.276 351.634H219.115C219.065 351.634 219.014 351.634 218.961 351.634Z" fill="#371A45"/>
<path d="M230.727 312.208C231.372 313.456 238.026 322.789 238.026 322.789C238.026 322.789 240.648 321.432 243.869 319.767C247.892 317.686 248.531 310.928 245.296 304.673C242.061 298.419 236.177 295.033 232.154 297.114C229.439 298.518 226.311 300.136 226.311 300.136C226.311 300.136 229.675 310.174 230.727 312.208Z" fill="#22A7F0"/>
<path d="M230.727 312.208C231.372 313.456 238.026 322.789 238.026 322.789C238.026 322.789 240.648 321.432 243.869 319.767C247.892 317.686 248.531 310.928 245.296 304.673C242.061 298.419 236.177 295.033 232.154 297.114C229.439 298.518 226.311 300.136 226.311 300.136C226.311 300.136 229.675 310.174 230.727 312.208Z" fill="#22A7F0"/>
<path d="M241.737 318.297C242.11 315.074 241.394 311.296 239.501 307.636C237.623 304.003 234.98 301.25 232.158 299.686L233.204 299.145C233.703 298.886 234.232 298.785 234.755 298.785C235.972 298.785 237.157 299.334 237.88 299.749C239.957 300.943 241.919 303.121 243.265 305.724C244.611 308.327 245.254 311.186 245.028 313.57C244.916 314.757 244.48 316.877 242.819 317.737L241.737 318.297Z" fill="#2976B4"/>
<path d="M232.756 311.156C233.11 311.818 235.898 315.837 238.74 319.846L242.819 317.737C244.48 316.877 244.916 314.757 245.028 313.57C245.254 311.186 244.611 308.327 243.265 305.724C241.919 303.121 239.956 300.943 237.88 299.749C236.847 299.156 234.864 298.286 233.204 299.145L229.106 301.264C230.403 305.059 232.154 309.99 232.756 311.156ZM237.315 325.73L236.165 324.116C234.582 321.896 229.364 314.551 228.697 313.259C227.595 311.13 224.493 301.908 224.143 300.863L223.52 299.005L231.104 295.084C233.763 293.708 236.98 293.957 240.159 295.786C243.018 297.43 245.562 300.213 247.326 303.623C249.089 307.034 249.889 310.719 249.579 314.001C249.235 317.653 247.578 320.422 244.919 321.798L237.315 325.73Z" fill="#371A45"/>
<path d="M222.902 316.221C226.137 322.476 232.021 325.861 236.044 323.78C240.067 321.7 240.706 314.941 237.471 308.686C234.236 302.431 228.352 299.046 224.329 301.127C220.306 303.207 219.667 309.966 222.902 316.221Z" fill="#22A7F0"/>
<path d="M224.933 315.171C227.765 320.648 232.508 323.034 234.994 321.749C237.479 320.464 238.272 315.214 235.44 309.737C232.607 304.261 227.867 301.875 225.379 303.158C222.893 304.443 222.099 309.693 224.933 315.171ZM233.435 326.686C228.9 326.686 223.895 323.118 220.871 317.271C216.997 309.781 218.055 301.798 223.279 299.097C228.501 296.394 235.627 300.147 239.501 307.636C243.375 315.127 242.318 323.11 237.094 325.811C235.948 326.404 234.71 326.686 233.435 326.686Z" fill="#371A45"/>
<path d="M235.44 309.737C232.607 304.259 227.865 301.875 225.379 303.158C222.893 304.443 222.099 309.693 224.933 315.171C227.765 320.648 232.509 323.034 234.993 321.749C237.479 320.464 238.272 315.214 235.44 309.737Z" fill="#22A7F0"/>
<path d="M225.01 315.317C225.009 315.317 225.009 315.316 225.007 315.314C225.009 315.316 225.009 315.317 225.01 315.317ZM224.984 315.27C224.984 315.268 224.982 315.266 224.982 315.264C224.982 315.266 224.984 315.268 224.984 315.27ZM224.957 315.22C224.957 315.218 224.957 315.217 224.956 315.217C224.957 315.217 224.957 315.218 224.957 315.22Z" fill="#A7DCF9"/>
<path d="M226.86 317.256C226.594 317.203 226.328 317.137 226.06 317.056C225.7 316.531 225.355 315.967 225.034 315.365C225.026 315.349 225.017 315.334 225.01 315.318C225.008 315.318 225.008 315.316 225.006 315.314C224.999 315.3 224.992 315.285 224.984 315.271C224.984 315.269 224.982 315.267 224.982 315.265C224.973 315.251 224.966 315.236 224.957 315.222C224.957 315.22 224.957 315.218 224.956 315.218C224.949 315.202 224.94 315.187 224.933 315.171C223.676 312.743 223.133 310.359 223.135 308.345C223.137 305.817 223.996 303.873 225.379 303.158C225.819 302.931 226.328 302.819 226.885 302.819C228.795 302.819 231.259 304.13 233.358 306.614C231.729 305.268 230.036 304.569 228.639 304.569C228.08 304.569 227.569 304.681 227.13 304.909C224.644 306.194 223.849 311.444 226.683 316.922C226.741 317.034 226.801 317.146 226.86 317.256Z" fill="#A7DCF9"/>
<path d="M233.481 322.091C231.273 322.091 228.325 320.345 226.06 317.056C228.325 320.345 231.275 322.091 233.481 322.091C234.041 322.091 234.552 321.979 234.993 321.749C236.376 321.035 237.236 319.09 237.238 316.562C237.236 319.09 236.376 321.035 234.993 321.749C234.552 321.979 234.041 322.091 233.481 322.091ZM234.895 308.76C234.654 308.356 234.402 307.972 234.141 307.608C234.402 307.972 234.654 308.356 234.895 308.76Z" fill="#2976B4"/>
<path d="M233.444 324.393C229.775 324.393 225.49 321.226 222.902 316.221C222.697 315.827 222.51 315.431 222.337 315.034C223.543 315.988 224.81 316.678 226.06 317.056C228.325 320.345 231.273 322.091 233.481 322.091C234.041 322.091 234.552 321.979 234.993 321.749C236.376 321.035 237.236 319.09 237.238 316.562C237.24 314.549 236.697 312.165 235.44 309.737C235.267 309.399 235.085 309.073 234.895 308.76C234.654 308.355 234.402 307.972 234.141 307.608C233.931 306.074 233.481 304.467 232.784 302.871C234.568 304.282 236.219 306.265 237.471 308.686C240.706 314.941 240.067 321.7 236.044 323.78C235.24 324.197 234.362 324.393 233.444 324.393Z" fill="#371A45"/>
<path d="M233.481 322.091C231.275 322.091 228.325 320.345 226.06 317.056C226.893 318.264 227.819 319.264 228.765 320.044C228.082 319.236 227.434 318.31 226.86 317.256C227.313 317.343 227.762 317.389 228.201 317.389C229.115 317.389 229.99 317.193 230.792 316.778C233.542 315.356 234.71 311.748 234.141 307.608C234.402 307.972 234.654 308.356 234.895 308.76C235.084 309.073 235.266 309.399 235.44 309.737C236.697 312.165 237.239 314.549 237.238 316.562C237.236 319.09 236.376 321.035 234.993 321.749C234.552 321.979 234.041 322.091 233.481 322.091Z" fill="#2976B4"/>
<path d="M228.765 320.044C227.819 319.263 226.893 318.264 226.06 317.056C226.328 317.136 226.594 317.203 226.86 317.255C227.434 318.309 228.082 319.235 228.765 320.044Z" fill="#8098BA"/>
<path d="M344.238 221.354C344.238 221.354 320.71 259.195 275.788 276.973C268.776 279.747 264.846 287.373 267.225 294.437C268.482 298.164 271.338 301.141 277.265 301.131C302.006 301.091 360.705 254.749 361.257 236.457C361.773 219.368 344.238 221.354 344.238 221.354Z" fill="white"/>
<path d="M361.269 235.599C361.26 234.018 361.089 232.607 360.789 231.353C360.791 231.352 360.793 231.348 360.793 231.346C361.089 232.603 361.26 234.014 361.269 235.599Z" fill="#8C7B94"/>
<path d="M283.347 300.378L283.345 300.377C307.248 295.036 349.169 262.581 359.107 243.376V243.377C349.174 262.581 307.251 295.036 283.347 300.378Z" fill="#B9AFBE"/>
<path d="M359.107 243.376V243.375C360.441 240.798 361.197 238.459 361.257 236.456C361.267 236.164 361.271 235.879 361.269 235.599C361.271 235.88 361.267 236.168 361.258 236.46C361.197 238.461 360.439 240.801 359.107 243.376Z" fill="#371A45"/>
<path d="M267.922 296.095C267.649 295.567 267.418 295.013 267.225 294.441C266.779 293.112 266.553 291.762 266.532 290.429C266.555 291.761 266.779 293.109 267.225 294.437C267.42 295.01 267.651 295.567 267.924 296.095H267.922Z" fill="#B9AFBE"/>
<path d="M277.246 301.132C272.237 301.132 269.429 299.005 267.922 296.094H267.924C269.429 299.001 272.239 301.13 277.237 301.13C277.246 301.13 277.256 301.13 277.265 301.13C277.704 301.13 278.153 301.114 278.611 301.085L278.613 301.086C278.154 301.116 277.706 301.132 277.269 301.132C277.262 301.132 277.253 301.132 277.246 301.132Z" fill="#8C7B94"/>
<path d="M278.613 301.087L278.611 301.085C280.09 300.991 281.673 300.751 283.345 300.376L283.346 300.378C281.673 300.753 280.092 300.992 278.613 301.087Z" fill="#371A45"/>
<path d="M277.237 301.131C272.239 301.131 269.429 299.002 267.924 296.094C267.651 295.566 267.42 295.009 267.225 294.437C266.779 293.108 266.555 291.76 266.532 290.428C266.492 288.105 267.068 285.829 268.148 283.791C268.155 283.835 268.169 283.87 268.185 283.914C269.438 287.636 272.295 290.613 278.205 290.613C278.212 290.613 278.219 290.613 278.226 290.613C300.791 290.578 351.618 252.009 360.789 231.354C361.089 232.607 361.26 234.018 361.269 235.599C361.271 235.879 361.267 236.165 361.257 236.457C361.197 238.46 360.441 240.798 359.107 243.375C349.169 262.581 307.247 295.035 283.345 300.376C281.673 300.751 280.09 300.991 278.611 301.085C278.153 301.115 277.704 301.131 277.265 301.131C277.256 301.131 277.246 301.131 277.237 301.131Z" fill="#B9AFBE"/>
<path d="M345.936 224.335C341.165 231.459 317.94 263.571 276.91 279.807C271.271 282.038 268.286 288.037 270.114 293.464C271.19 296.659 273.387 298.084 277.235 298.084H277.26C301.323 298.043 357.736 252.099 358.211 236.366C358.332 232.356 357.316 229.324 355.189 227.353C352.355 224.725 348.098 224.343 345.936 224.335ZM277.237 304.179C270.823 304.179 266.243 301.067 264.337 295.41C261.473 286.908 266.01 277.563 274.665 274.139C318.07 256.962 341.419 220.116 341.648 219.745L342.429 218.495L343.894 218.327C344.274 218.283 353.304 217.33 359.296 222.847C362.797 226.069 364.481 230.679 364.305 236.55C363.963 247.849 346.466 265.393 330.205 278.045C313.984 290.665 291.56 304.156 277.27 304.179H277.237Z" fill="#371A45"/>
<path d="M233.64 349.563C232.849 349.563 232.08 349.152 231.657 348.419L214.944 319.436L208.027 318.364L188.13 286.33C187.465 285.259 187.794 283.848 188.867 283.183C189.938 282.516 191.349 282.847 192.015 283.918L210.802 314.168L217.81 315.252L235.618 346.134C236.249 347.228 235.874 348.625 234.78 349.257C234.421 349.464 234.027 349.563 233.64 349.563Z" fill="#371A45"/>
<path d="M4.41034 20.1352L4.5115 20.5371L4.61725 19.8309C4.95749 17.5844 6.14836 15.5544 7.94614 14.1626C6.11158 12.6991 4.81495 10.676 4.24021 8.40235L4.13905 8.00004L4.03331 8.70674C3.69398 10.9537 2.50224 12.9833 0.706299 14.375C2.53764 15.8385 3.83561 17.862 4.41034 20.1352Z" fill="#FFEB34"/>
<path d="M55.8927 14.9421C55.9846 15.7932 55.3685 16.556 54.5179 16.6456C53.6627 16.7353 52.904 16.1183 52.8121 15.2672C52.7247 14.4161 53.3408 13.6538 54.1915 13.5642C55.0421 13.4745 55.8053 14.0915 55.8927 14.9421Z" fill="#FFEB34"/>
<path d="M52.2282 25.9143C52.357 27.1299 51.4742 28.2196 50.2603 28.3475C49.0465 28.4757 47.9522 27.5939 47.828 26.3782C47.6993 25.1625 48.5821 24.0733 49.7959 23.945C51.0098 23.8172 52.0995 24.6986 52.2282 25.9143Z" fill="#FFEB34"/>
<path d="M55.4376 35.804C51.3225 35.3814 47.212 35.1317 43.1015 34.9423C39.0047 34.763 34.9034 34.6642 30.8021 34.6329C32.4987 32.8954 34.1678 31.1334 35.8092 29.3421C37.7082 27.2625 39.5749 25.1539 41.3589 22.9616C41.529 22.7515 41.2485 22.4715 41.037 22.6421C38.8438 24.4256 36.738 26.2928 34.6598 28.1894C32.8666 29.8313 31.1056 31.5026 29.363 33.1983C29.3308 29.0915 29.2342 24.9847 29.0549 20.8778C28.8618 16.7733 28.6135 12.6688 28.1951 8.56424C28.1537 8.1702 27.5744 8.1702 27.5376 8.56424C27.1146 12.6688 26.8663 16.7733 26.6778 20.8778C26.4985 24.9856 26.3973 29.0929 26.3651 33.2006C24.6225 31.5022 22.857 29.8272 21.0638 28.1821C18.9855 26.2891 16.8797 24.4246 14.6911 22.6425C14.4842 22.471 14.2037 22.7515 14.3738 22.9616C16.1578 25.1493 18.02 27.2546 19.9143 29.331C21.5603 31.1265 23.234 32.8926 24.9306 34.6343C20.8247 34.6683 16.7187 34.7667 12.6082 34.9465C8.50691 35.1359 4.40099 35.3851 0.29553 35.804C-0.0985099 35.8444 -0.0985099 36.4242 0.29553 36.4642C4.40099 36.8836 8.50691 37.1323 12.6082 37.3222C16.7187 37.5015 20.8247 37.6004 24.9306 37.6339C23.234 39.3761 21.5603 41.1417 19.9143 42.9376C18.02 45.014 16.1578 47.1194 14.3738 49.3071C14.2037 49.5168 14.4842 49.7972 14.6911 49.6257C16.8797 47.8436 18.9855 45.9796 21.0638 44.0861C22.857 42.4415 24.6225 40.7674 26.3651 39.0694C26.3973 43.1703 26.4939 47.2711 26.6732 51.3715C26.8617 55.4825 27.1146 59.5935 27.5376 63.7045C27.5744 64.0985 28.1537 64.0985 28.1951 63.7045C28.6181 59.5935 28.8664 55.4825 29.0595 51.3715C29.2342 47.2716 29.3354 43.1716 29.3676 39.0717C31.1056 40.7669 32.8666 42.4378 34.6598 44.0793C36.738 45.9759 38.8438 47.8426 41.037 49.6262C41.2485 49.7972 41.529 49.5172 41.3589 49.3071C39.5749 47.1148 37.7082 45.0058 35.8092 42.9261C34.1678 41.1348 32.4987 39.3733 30.8021 37.6353C34.9034 37.604 39.0047 37.5052 43.1015 37.3259C47.212 37.1369 51.3225 36.8868 55.4376 36.4642C55.8284 36.4238 55.8284 35.8444 55.4376 35.804Z" fill="#FFEB34"/>
<path d="M450.41 205.135L450.512 205.537L450.617 204.831C450.957 202.584 452.148 200.554 453.946 199.163C452.112 197.699 450.815 195.676 450.24 193.402L450.139 193L450.033 193.707C449.694 195.954 448.502 197.983 446.706 199.375C448.538 200.839 449.836 202.862 450.41 205.135Z" fill="#FFEB34"/>
<path d="M501.893 199.943C501.985 200.794 501.368 201.556 500.518 201.646C499.663 201.736 498.904 201.119 498.812 200.268C498.725 199.417 499.341 198.654 500.191 198.565C501.042 198.475 501.805 199.092 501.893 199.943Z" fill="#FFEB34"/>
<path d="M498.228 210.914C498.357 212.13 497.474 213.22 496.26 213.347C495.046 213.476 493.952 212.594 493.828 211.378C493.699 210.163 494.582 209.073 495.796 208.945C497.01 208.817 498.099 209.699 498.228 210.914Z" fill="#FFEB34"/>
<path d="M501.438 220.804C497.322 220.381 493.212 220.132 489.101 219.942C485.005 219.763 480.903 219.664 476.802 219.633C478.499 217.895 480.168 216.133 481.809 214.342C483.708 212.262 485.575 210.154 487.359 207.962C487.529 207.751 487.249 207.471 487.037 207.642C484.844 209.426 482.738 211.293 480.66 213.189C478.867 214.831 477.106 216.503 475.363 218.198C475.331 214.092 475.234 209.985 475.055 205.878C474.862 201.773 474.613 197.669 474.195 193.564C474.154 193.17 473.574 193.17 473.538 193.564C473.115 197.669 472.866 201.773 472.678 205.878C472.498 209.986 472.397 214.093 472.365 218.201C470.623 216.502 468.857 214.827 467.064 213.182C464.986 211.289 462.88 209.425 460.691 207.642C460.484 207.471 460.204 207.751 460.374 207.962C462.158 210.149 464.02 212.255 465.914 214.331C467.56 216.127 469.234 217.893 470.931 219.634C466.825 219.668 462.719 219.767 458.608 219.946C454.507 220.136 450.401 220.385 446.296 220.804C445.901 220.844 445.901 221.424 446.296 221.464C450.401 221.884 454.507 222.132 458.608 222.322C462.719 222.502 466.825 222.6 470.931 222.634C469.234 224.376 467.56 226.142 465.914 227.938C464.02 230.014 462.158 232.119 460.374 234.307C460.204 234.517 460.484 234.797 460.691 234.626C462.88 232.844 464.986 230.98 467.064 229.086C468.857 227.441 470.623 225.767 472.365 224.069C472.397 228.17 472.494 232.271 472.673 236.372C472.862 240.482 473.115 244.593 473.538 248.704C473.574 249.099 474.154 249.099 474.195 248.704C474.618 244.593 474.866 240.482 475.059 236.372C475.234 232.272 475.335 228.172 475.368 224.072C477.106 225.767 478.867 227.438 480.66 229.079C482.738 230.976 484.844 232.843 487.037 234.626C487.249 234.797 487.529 234.517 487.359 234.307C485.575 232.115 483.708 230.006 481.809 227.926C480.168 226.135 478.499 224.373 476.802 222.635C480.903 222.604 485.005 222.505 489.101 222.326C493.212 222.137 497.322 221.887 501.438 221.464C501.828 221.424 501.828 220.844 501.438 220.804Z" fill="#FFEB34"/>
<path d="M120.985 413.469L121.123 414.015L121.266 413.056C121.728 410.007 123.344 407.252 125.784 405.364C123.294 403.377 121.535 400.632 120.755 397.546L120.617 397L120.474 397.959C120.013 401.009 118.396 403.763 115.958 405.652C118.444 407.638 120.205 410.384 120.985 413.469Z" fill="#FFEB34"/>
<path d="M190.854 406.422C190.979 407.577 190.143 408.612 188.989 408.734C187.828 408.856 186.798 408.018 186.674 406.863C186.555 405.708 187.391 404.674 188.546 404.552C189.7 404.43 190.736 405.268 190.854 406.422Z" fill="#FFEB34"/>
<path d="M185.881 421.312C186.056 422.962 184.858 424.441 183.21 424.615C181.563 424.789 180.078 423.592 179.91 421.942C179.735 420.292 180.933 418.814 182.58 418.64C184.228 418.466 185.706 419.662 185.881 421.312Z" fill="#FFEB34"/>
<path d="M190.237 434.734C184.652 434.16 179.074 433.822 173.495 433.565C167.935 433.321 162.369 433.187 156.803 433.145C159.105 430.786 161.371 428.395 163.598 425.964C166.175 423.142 168.709 420.28 171.13 417.305C171.361 417.02 170.98 416.64 170.693 416.871C167.717 419.292 164.859 421.826 162.038 424.4C159.605 426.628 157.215 428.896 154.85 431.198C154.806 425.624 154.675 420.051 154.432 414.477C154.17 408.907 153.833 403.336 153.265 397.766C153.209 397.231 152.422 397.231 152.373 397.766C151.798 403.336 151.461 408.907 151.206 414.477C150.962 420.052 150.825 425.626 150.781 431.201C148.416 428.896 146.02 426.623 143.587 424.39C140.766 421.821 137.908 419.291 134.938 416.872C134.657 416.639 134.277 417.02 134.507 417.305C136.929 420.274 139.456 423.131 142.027 425.949C144.261 428.386 146.532 430.783 148.834 433.146C143.262 433.193 137.69 433.326 132.111 433.57C126.545 433.827 120.973 434.165 115.401 434.734C114.866 434.789 114.866 435.576 115.401 435.63C120.973 436.199 126.545 436.537 132.111 436.794C137.69 437.038 143.262 437.172 148.834 437.217C146.532 439.582 144.261 441.978 142.027 444.415C139.456 447.233 136.929 450.091 134.507 453.06C134.277 453.344 134.657 453.725 134.938 453.492C137.908 451.073 140.766 448.544 143.587 445.974C146.02 443.742 148.416 441.47 150.781 439.166C150.825 444.731 150.956 450.296 151.199 455.861C151.455 461.441 151.798 467.02 152.373 472.599C152.422 473.134 153.209 473.134 153.265 472.599C153.839 467.02 154.176 461.441 154.438 455.861C154.675 450.297 154.812 444.733 154.856 439.169C157.215 441.469 159.605 443.737 162.038 445.965C164.859 448.539 167.717 451.072 170.693 453.493C170.98 453.725 171.361 453.345 171.13 453.06C168.709 450.084 166.175 447.222 163.598 444.4C161.371 441.969 159.105 439.578 156.803 437.219C162.369 437.177 167.935 437.043 173.495 436.799C179.074 436.543 184.652 436.203 190.237 435.63C190.767 435.575 190.767 434.789 190.237 434.734Z" fill="#FFEB34"/>
</svg>
