<svg width="24" height="24" viewBox="0 0 24 24" fill="none" xmlns="http://www.w3.org/2000/svg">
<path d="M23.0641 2.71088C23.0705 2.85036 23.0737 2.98918 23.0737 3.12674C23.0744 3.65767 23.0262 4.18668 22.9298 4.70862L22.9202 4.7067C22.1378 4.37695 21.491 3.7901 21.0863 3.04319L21.0818 3.03484C21.728 2.85036 22.3928 2.74173 23.0641 2.71088Z" fill="#FFD770"/>
<path d="M17.4663 11.2869C17.3032 11.3498 17.1377 11.4077 16.9699 11.4604L16.2766 10.8292L15.6677 10.2745L14.9126 9.58671C14.9478 9.42666 14.9877 9.26852 15.0323 9.11168C15.2938 8.1803 15.7083 7.29841 16.259 6.50329C17.4188 4.82499 19.1226 3.59986 21.0819 3.03485L21.0864 3.04321C21.491 3.79012 22.1379 4.37697 22.9203 4.70671L22.9299 4.70863C22.5586 6.71861 21.4949 8.53513 19.9243 9.84254C19.1901 10.4564 18.3595 10.9443 17.4663 11.2869Z" fill="#FF368F"/>
<path d="M22.2477 19.8821C22.3659 20.0004 22.5098 20.0897 22.6691 20.1431C22.5098 20.1964 22.3659 20.2864 22.2477 20.4047C22.1295 20.5236 22.0402 20.6683 21.9876 20.8277C21.9343 20.6683 21.8456 20.5236 21.7274 20.4047C21.6092 20.2858 21.4647 20.1964 21.306 20.1431C21.4647 20.0897 21.6092 20.0004 21.7274 19.8815C21.8456 19.7632 21.9343 19.6186 21.9876 19.4592C22.0402 19.6186 22.1295 19.7632 22.2477 19.8821Z" fill="#3090FC"/>
<path d="M20.187 12.5788L18.5885 14.3612L17.5683 13.4195C17.2745 13.1489 17.0992 12.7735 17.0801 12.3744C17.061 11.9752 17.1997 11.5844 17.4662 11.2868C18.3595 10.9442 19.1901 10.4563 19.9243 9.84247L19.9256 9.84374C19.8067 10.0475 19.7611 10.2853 19.7971 10.5187C19.8324 10.7513 19.9468 10.9654 20.1209 11.1235C20.3226 11.3074 20.4427 11.5632 20.4555 11.8357C20.4684 12.1083 20.3727 12.3744 20.1889 12.5762L20.187 12.5788Z" fill="#FF368F"/>
<path d="M18.5886 14.3613L20.1871 12.5788C19.8897 17.131 16.0847 20.7325 11.434 20.7325C10.2887 20.7338 9.15407 20.5114 8.09399 20.0775V20.0769C12.7587 17.5147 15.1795 13.6921 15.9424 12.3339L15.9618 12.3127L15.9794 12.3294L16.2766 10.8292L16.9699 11.4604C17.1375 11.4077 17.3029 11.3498 17.4662 11.2868C17.1998 11.5844 17.0611 11.9753 17.0802 12.3744C17.0992 12.7736 17.2746 13.149 17.5684 13.4196L18.5886 14.3613Z" fill="#49BDFF"/>
<path d="M17.1645 5.39641C16.8333 5.74029 16.5305 6.11054 16.2589 6.50328C16.0677 6.64084 15.835 6.70833 15.5999 6.69483C15.3648 6.68133 15.1414 6.58749 14.9672 6.42872C14.7657 6.24553 14.4996 6.14911 14.2274 6.16196C13.9551 6.17482 13.6991 6.29502 13.5156 6.49685L11.8897 8.2587L12.9217 9.18752C13.2147 9.45042 13.5985 9.58991 13.9922 9.57576C14.3858 9.56162 14.7587 9.39513 15.0322 9.11167C14.9875 9.26851 14.9476 9.42664 14.9126 9.58669L15.6677 10.2745L14.1573 10.6691L14.1732 10.6839C13.7595 11.2457 12.7478 12.5885 11.4841 14.0495L11.2514 13.7776C11.2158 13.7358 11.1819 13.6928 11.1498 13.6478L10.6932 13.0146C10.4407 12.6643 10.0369 12.4323 9.60333 12.4438C9.55985 12.4451 9.51681 12.4335 9.47961 12.411L8.54647 11.8544C8.41209 11.7747 8.25953 11.7304 8.10331 11.7265C7.9471 11.7233 7.79255 11.7593 7.6545 11.8326L7.16265 12.0948C6.94753 12.2092 6.69714 12.2388 6.4614 12.1771C6.22559 12.1154 6.02171 11.9669 5.89035 11.7619L5.41244 11.0111C5.30439 10.8414 5.24844 10.6434 5.25159 10.4422C5.25467 10.241 5.31679 10.045 5.4301 9.87852C5.55189 9.69918 5.72128 9.55648 5.91919 9.46778C6.1171 9.37843 6.33588 9.34628 6.55107 9.37456L7.26742 9.46521C7.39223 9.48256 7.51935 9.46262 7.63311 9.40799C7.74681 9.35399 7.8422 9.26723 7.9074 9.15988C8.01994 8.96769 8.1863 8.81342 8.38582 8.71507C8.5854 8.61737 8.80932 8.5801 9.02978 8.60903L9.34273 8.64824C9.45251 8.66238 9.56396 8.64694 9.66622 8.60516C9.76848 8.56274 9.85809 8.4946 9.92631 8.40782L10.2023 8.05109C10.3239 7.89489 10.3923 7.70399 10.3973 7.50602C10.4024 7.30868 10.3438 7.11457 10.2303 6.95259L9.635 6.09833C9.40632 5.77051 9.10885 5.49669 8.76327 5.2955C8.67257 5.24279 8.58495 5.1843 8.50086 5.12131L7.99906 4.74657L7.36358 4.2709C8.92327 3.45971 10.6897 3.13319 12.436 3.33374C14.1824 3.53429 15.8291 4.25226 17.1645 5.39641Z" fill="#49BDFF"/>
<path d="M14.1731 10.6839L14.1573 10.6691L15.6677 10.2745L16.2765 10.8292L15.9793 12.3294L15.9617 12.3127L14.1731 10.6839Z" fill="#FF368F"/>
<path d="M15.9617 12.3127L15.9423 12.3339C15.1794 13.6921 12.7586 17.5147 8.0939 20.0769C7.28518 20.521 6.44589 20.9073 5.58225 21.2319C5.58225 21.2319 -2.4278 23.6732 3.37275 15.4733C0.29159 21.4563 5.93278 18.9488 6.0475 18.8941L6.04795 18.8935C6.79314 18.5278 7.59936 17.9319 8.40647 17.2203C9.47734 16.2767 10.5495 15.1307 11.484 14.0495C12.7477 12.5885 13.7594 11.2457 14.1732 10.6839L15.9617 12.3127Z" fill="#FADF4A"/>
<path d="M14.9672 6.42873C15.1414 6.58749 15.3648 6.68134 15.5999 6.69484C15.835 6.70834 16.0677 6.64084 16.2589 6.50329C15.7083 7.2984 15.2938 8.18029 15.0322 9.11168C14.7587 9.39514 14.3858 9.56163 13.9922 9.57577C13.5985 9.58991 13.2147 9.45043 12.9217 9.18753L11.8896 8.25871L13.5156 6.49685C13.6991 6.29502 13.9551 6.17482 14.2274 6.16197C14.4996 6.14911 14.7657 6.24553 14.9672 6.42873Z" fill="#FF368F"/>
<path d="M11.2513 13.7776L11.4839 14.0495C10.5495 15.1307 9.47726 16.2768 8.4064 17.2204L8.37653 17.1869C8.3322 17.0378 8.26103 16.8983 8.16654 16.7749L7.15349 15.4533C7.06234 15.3344 6.99489 15.1995 6.95474 15.0548L6.62053 13.8547C6.56098 13.6446 6.44819 13.4537 6.29312 13.3C6.138 13.1464 5.94587 13.0352 5.73531 12.978L5.66259 12.9581C5.5151 12.9182 5.37964 12.8424 5.2678 12.7382L4.64408 12.1546C4.54548 12.062 4.46056 11.9553 4.39208 11.839C4.24633 11.5896 4.02684 11.3923 3.76406 11.274C3.50127 11.1551 3.2081 11.121 2.92508 11.1763L2.80541 11.2001L2.7002 11.1898C2.97975 8.17899 4.79721 5.61107 7.36347 4.27087L7.99895 4.74655L8.50076 5.12129C8.58484 5.18428 8.67246 5.24278 8.76316 5.29548C9.10874 5.49667 9.40622 5.77049 9.63489 6.09831L10.2302 6.95258C10.3437 7.11456 10.4022 7.30867 10.3972 7.50601C10.3922 7.70398 10.3238 7.89488 10.2022 8.05108L9.9262 8.40782C9.85798 8.49459 9.76837 8.56273 9.66611 8.60516C9.56385 8.64694 9.4524 8.66238 9.34262 8.64823L9.02967 8.60902C8.80921 8.5801 8.58529 8.61736 8.38571 8.71507C8.1862 8.81341 8.01977 8.96769 7.90729 9.15988C7.84209 9.26723 7.7467 9.35399 7.633 9.40799C7.51924 9.46262 7.39212 9.48256 7.26731 9.46521L6.55096 9.37456C6.33577 9.34628 6.11699 9.37843 5.91908 9.46778C5.72111 9.55648 5.55178 9.69918 5.42999 9.87852C5.31662 10.045 5.25457 10.241 5.25142 10.4422C5.24834 10.6434 5.30429 10.8414 5.41233 11.0111L5.89017 11.7619C6.0216 11.9669 6.22548 12.1154 6.46129 12.1771C6.69703 12.2388 6.94742 12.2092 7.16248 12.0948L7.65433 11.8326C7.79243 11.7593 7.94699 11.7233 8.10321 11.7265C8.25936 11.7304 8.41198 11.7747 8.54636 11.8544L9.47951 12.4111C9.5167 12.4336 9.55974 12.4451 9.60322 12.4439C10.0368 12.4323 10.4406 12.6643 10.6931 13.0146L11.1497 13.6478C11.1818 13.6928 11.2157 13.7358 11.2513 13.7776Z" fill="#9BE147"/>
<path d="M10.8436 22.2463C10.9616 22.3652 11.1058 22.4545 11.2646 22.5079C11.1058 22.5612 10.9616 22.6506 10.8433 22.7695C10.725 22.8878 10.636 23.0324 10.583 23.1918C10.5304 23.0324 10.4414 22.8878 10.3231 22.7688C10.2047 22.6506 10.0604 22.5606 9.90149 22.5079C10.0603 22.4545 10.2046 22.3645 10.3229 22.2463C10.4412 22.1274 10.5302 21.9827 10.583 21.8233C10.636 21.9827 10.7252 22.1274 10.8436 22.2463Z" fill="#3090FC"/>
<path d="M8.61698 1.46836C8.7353 1.58663 8.87957 1.67598 9.03836 1.72934C8.8795 1.78269 8.73523 1.87267 8.61698 1.99094C8.49866 2.10986 8.40963 2.2545 8.35683 2.41391C8.30409 2.2545 8.215 2.10986 8.09674 1.99094C7.97842 1.87267 7.83415 1.78269 7.67529 1.72934C7.83415 1.67663 7.97848 1.58663 8.0968 1.46836C8.21513 1.34944 8.30415 1.20482 8.35683 1.04541C8.40963 1.20482 8.49872 1.34944 8.61698 1.46836Z" fill="#3090FC"/>
<path d="M8.37672 17.1869L8.40653 17.2203C7.59941 17.9319 6.79319 18.5278 6.048 18.8935L6.04755 18.8941C4.88586 17.9942 3.96884 16.8167 3.38096 15.47C2.90543 14.3767 2.66082 13.1965 2.66236 12.0042C2.66236 11.7297 2.67502 11.4578 2.70033 11.1898L2.80554 11.2001L2.92528 11.1763C3.20823 11.121 3.5014 11.1551 3.76419 11.274C4.02704 11.3923 4.24646 11.5896 4.39221 11.839C4.46075 11.9553 4.54561 12.062 4.64421 12.1546L5.268 12.7382C5.37977 12.8424 5.51523 12.9182 5.66272 12.9581L5.73544 12.978C5.946 13.0352 6.13813 13.1464 6.29325 13.3C6.44832 13.4537 6.56111 13.6446 6.62066 13.8547L6.95487 15.0548C6.99502 15.1994 7.06253 15.3344 7.15362 15.4533L8.16667 16.7749C8.26122 16.8983 8.3324 17.0378 8.37672 17.1869Z" fill="#49BDFF"/>
<path d="M19.9449 6.13942C20.1042 6.28405 20.2167 6.47302 20.2687 6.68192C20.3201 6.89083 20.3091 7.11065 20.2359 7.31313C20.1633 7.5156 20.0317 7.69174 19.8589 7.81965C19.6854 7.94756 19.4786 8.02147 19.2634 8.03176C19.0488 8.0414 18.8357 7.98805 18.6514 7.87685C18.4671 7.76565 18.3198 7.60238 18.2283 7.40762C18.1367 7.21286 18.1049 6.99496 18.1369 6.7822C18.1688 6.56944 18.2632 6.37082 18.408 6.21141C18.6022 5.99801 18.8732 5.87074 19.1615 5.8566C19.4497 5.8431 19.7317 5.94466 19.9449 6.13942Z" fill="#5F6A78"/>
<path d="M15.1501 12.2292C15.1531 12.2864 15.1479 12.3442 15.1348 12.4008C15.1068 12.521 15.0439 12.6303 14.9541 12.7151C14.8642 12.7993 14.7515 12.8559 14.6298 12.8765L13.8372 13.0127L13.8986 12.2105C13.9106 12.0511 13.983 11.902 14.1009 11.7946C14.2188 11.6867 14.3734 11.6282 14.5331 11.6301C14.6928 11.6327 14.8456 11.6957 14.9602 11.8069C15.0749 11.9187 15.1428 12.0691 15.1501 12.2292Z" fill="#ED6337"/>
<path d="M11.4339 3.27586C10.0168 3.27393 8.62015 3.61523 7.36365 4.27088L7.99913 4.74655L8.50087 5.1213L8.62825 5.17464C9.95265 4.48621 11.4299 4.14489 12.9218 4.18282C14.4138 4.22074 15.8718 4.63663 17.1594 5.39191C15.5658 4.02341 13.5341 3.27264 11.4339 3.27586Z" fill="#3090FC"/>
<path d="M8.59884 5.1907C8.56583 5.1682 8.53281 5.14572 8.50075 5.12129L7.99895 4.74655L7.36347 4.27087C4.79721 5.61108 2.97975 8.179 2.7002 11.1898L2.80541 11.2001L2.92508 11.1763C3.12113 11.1377 3.32314 11.1422 3.51733 11.1891C3.71151 11.2361 3.8933 11.3241 4.05029 11.4482C4.51021 8.72923 6.23338 6.43705 8.59884 5.1907Z" fill="#50DD5A"/>
<path d="M4.78109 15.7863C4.30556 14.6929 4.06089 13.5127 4.0625 12.3204C4.0625 12.0459 4.07515 11.774 4.10046 11.506L4.12262 11.5086C3.96248 11.3639 3.77087 11.2585 3.56306 11.2007C3.35526 11.1434 3.13687 11.1351 2.92528 11.1762L2.80554 11.2L2.70033 11.1897C2.67502 11.4578 2.66236 11.7297 2.66236 12.0041C2.66082 13.1965 2.90543 14.3766 3.38096 15.47C3.96884 16.8166 4.88586 17.9942 6.04755 18.8941L6.048 18.8935C6.26441 18.7861 6.47516 18.6679 6.6795 18.5387C5.87559 17.7519 5.23093 16.8173 4.78109 15.7863Z" fill="#3090FC"/>
<path d="M5.02672 4.38727C5.08858 4.38791 5.14864 4.36607 5.19675 4.3275C5.36755 4.18929 5.54491 4.05558 5.72374 3.93023C5.7529 3.90966 5.77769 3.88332 5.79677 3.85375C5.81579 3.82354 5.82876 3.79012 5.83493 3.75476C5.84103 3.71941 5.8402 3.68405 5.83242 3.64869C5.82465 3.61398 5.81013 3.5812 5.78964 3.55228C5.76921 3.52335 5.7432 3.49827 5.71314 3.47899C5.68308 3.46035 5.64961 3.44685 5.61454 3.44107C5.57946 3.43464 5.54356 3.43592 5.50881 3.44364C5.47412 3.45135 5.44123 3.4655 5.41213 3.48607C5.22354 3.61913 5.03655 3.75989 4.85656 3.90516C4.81295 3.94052 4.78128 3.98874 4.76599 4.04274C4.7507 4.09673 4.75257 4.15395 4.7712 4.20666C4.78989 4.25937 4.82451 4.30564 4.87031 4.33778C4.91611 4.36992 4.97084 4.38727 5.02691 4.38727H5.02672Z" fill="#EBE4FB"/>
<path d="M1.80075 8.6656C1.83402 8.67845 1.86948 8.68425 1.90506 8.68361C1.94065 8.68232 1.97566 8.67395 2.0081 8.65981C2.0406 8.64503 2.06983 8.62447 2.09424 8.59812C2.11865 8.57241 2.13773 8.54219 2.15038 8.50877C2.64859 7.19878 3.42198 6.01091 4.41839 5.02553C4.44415 5.00046 4.46471 4.9709 4.4789 4.93812C4.49303 4.9047 4.50048 4.86933 4.5008 4.83333C4.50119 4.79734 4.49438 4.76199 4.48083 4.72856C4.46734 4.69514 4.4473 4.66493 4.42199 4.63986C4.39668 4.61415 4.36662 4.59423 4.33341 4.58009C4.30026 4.56659 4.26468 4.55951 4.22883 4.55951C4.19292 4.56015 4.15741 4.56722 4.12432 4.58136C4.09131 4.59486 4.06131 4.61544 4.03626 4.64115C2.98511 5.68053 2.1692 6.93396 1.64375 8.31594C1.61825 8.38343 1.62044 8.45799 1.64992 8.52356C1.67934 8.58912 1.73362 8.63989 1.80075 8.6656Z" fill="#EBE4FB"/>
<path d="M20.3452 16.9433C20.3143 16.9253 20.2809 16.9131 20.2456 16.9079C20.2103 16.9028 20.1743 16.9041 20.1396 16.9131C20.1056 16.9221 20.0728 16.9368 20.0445 16.9587C20.0156 16.9799 19.9919 17.0063 19.9732 17.0371C19.8216 17.291 19.6559 17.5411 19.4805 17.7815C19.4594 17.8104 19.4433 17.8432 19.4349 17.8779C19.4259 17.9126 19.424 17.9492 19.4298 17.9846C19.4349 18.0199 19.4471 18.054 19.4658 18.0849C19.4844 18.1157 19.5088 18.142 19.5377 18.1633C19.5666 18.1845 19.6 18.1999 19.6347 18.2076C19.6694 18.216 19.706 18.2173 19.7413 18.2121C19.7767 18.2063 19.8107 18.1935 19.8409 18.1742C19.8711 18.1555 19.8981 18.1305 19.9186 18.1009C20.1036 17.8477 20.2784 17.5835 20.4383 17.3154C20.4756 17.2537 20.4865 17.1798 20.4685 17.1098C20.4511 17.0403 20.4068 16.9806 20.3452 16.9433Z" fill="#EBE4FB"/>
<path d="M21.4814 14.9256C21.6355 14.3979 21.7473 13.858 21.816 13.3122C21.87 12.8784 21.897 12.4419 21.897 12.0048C21.897 11.9328 21.8687 11.8634 21.818 11.8126C21.7666 11.7619 21.6979 11.7336 21.6259 11.7336C21.554 11.7336 21.4852 11.7619 21.4345 11.8126C21.3837 11.8634 21.3548 11.9328 21.3548 12.0048C21.3548 12.4194 21.3298 12.8334 21.2784 13.2448C21.2135 13.7622 21.1075 14.2732 20.9617 14.7739C20.8731 15.0767 20.769 15.3788 20.6515 15.6713C20.5789 15.8506 20.5005 16.0299 20.4183 16.2041C20.3875 16.269 20.3836 16.3436 20.408 16.4117C20.4324 16.4792 20.4825 16.5345 20.5474 16.5654C20.6123 16.5962 20.6868 16.6001 20.7542 16.5756C20.8223 16.5519 20.8776 16.5017 20.9084 16.4368C20.9951 16.2523 21.078 16.0627 21.1544 15.8731C21.2778 15.5646 21.3882 15.2457 21.4814 14.9256Z" fill="#EBE4FB"/>
<path d="M6.58864 3.42308C6.76137 3.42308 6.9014 3.28296 6.9014 3.11005C6.9014 2.93715 6.76137 2.79767 6.58864 2.79767C6.41591 2.79767 6.27588 2.93715 6.27588 3.11005C6.27588 3.28296 6.41591 3.42308 6.58864 3.42308Z" fill="#EBE4FB"/>
<path d="M18.9524 18.4661C18.8906 18.4661 18.8303 18.4847 18.7789 18.5194C18.7275 18.5535 18.6875 18.6023 18.6639 18.6595C18.6403 18.7167 18.6341 18.7797 18.6462 18.8402C18.6582 18.9006 18.688 18.9565 18.7317 19.0002C18.7755 19.0439 18.8312 19.0735 18.8918 19.0857C18.9524 19.0979 19.0153 19.0915 19.0724 19.0677C19.1294 19.0446 19.1782 19.0041 19.2126 18.9526C19.2472 18.9012 19.2652 18.8408 19.2652 18.7791C19.2652 18.6962 19.2321 18.6165 19.1735 18.558C19.1148 18.4995 19.0354 18.4661 18.9524 18.4661Z" fill="#EBE4FB"/>
<path d="M16.1675 22.2366C16.096 22.2366 16.026 22.2578 15.9665 22.2977C15.9069 22.3369 15.8606 22.3935 15.8332 22.4597C15.8058 22.5259 15.7986 22.5991 15.8126 22.6692C15.8266 22.7393 15.8611 22.8036 15.9117 22.8543C15.9623 22.9051 16.0267 22.9398 16.0969 22.9533C16.1672 22.9675 16.2399 22.9604 16.306 22.9328C16.3721 22.9058 16.4287 22.8588 16.4684 22.7997C16.5082 22.7399 16.5294 22.6698 16.5294 22.5985C16.5292 22.5021 16.4911 22.4102 16.4233 22.3427C16.3554 22.2745 16.2634 22.2366 16.1675 22.2366Z" fill="#EBE4FB"/>
<path d="M16.7127 21.9146C16.9879 21.9146 17.2109 21.6915 17.2109 21.4164C17.2109 21.1406 16.9879 20.9176 16.7127 20.9176C16.4376 20.9176 16.2146 21.1406 16.2146 21.4164C16.2146 21.6915 16.4376 21.9146 16.7127 21.9146Z" fill="#EBE4FB"/>
<path d="M2.44613 3.04636C2.51769 3.04636 2.58764 3.02514 2.64719 2.98529C2.70667 2.94544 2.75305 2.88889 2.78041 2.82333C2.80784 2.75713 2.81497 2.68386 2.80103 2.6138C2.78709 2.54374 2.7526 2.47881 2.70198 2.42868C2.65136 2.3779 2.58693 2.34319 2.51672 2.32905C2.44652 2.31555 2.37374 2.32263 2.30764 2.34963C2.24154 2.37727 2.18501 2.42355 2.14525 2.48332C2.10549 2.5431 2.08423 2.61315 2.08423 2.6845C2.08436 2.78027 2.12251 2.87283 2.19034 2.94032C2.25818 3.00845 2.35016 3.04636 2.44613 3.04636Z" fill="#EBE4FB"/>
<path d="M2.99125 2.00061C3.08979 2.00061 3.18608 1.97168 3.26798 1.91704C3.34994 1.86241 3.41379 1.78399 3.4515 1.69336C3.4892 1.60208 3.49904 1.50181 3.47983 1.40539C3.46062 1.30833 3.41321 1.21962 3.34358 1.1502C3.27389 1.08013 3.18518 1.03256 3.08857 1.01328C2.9919 0.993992 2.89175 1.00428 2.80073 1.04156C2.70971 1.07949 2.63185 1.14313 2.57712 1.22541C2.52233 1.30704 2.49311 1.40346 2.49304 1.50245C2.49317 1.63422 2.54565 1.76086 2.63905 1.8547C2.73244 1.94791 2.85912 2.00061 2.99125 2.00061Z" fill="#EBE4FB"/>
<path d="M7.58936 1.98712C7.7082 2.02697 7.81611 2.09446 7.90463 2.18316C7.99321 2.27187 8.05995 2.3805 8.09971 2.49941C8.1177 2.55341 8.15219 2.60032 8.19831 2.63375C8.24449 2.66717 8.29993 2.68518 8.35684 2.68518C8.41376 2.68518 8.46925 2.66717 8.51537 2.63375C8.56156 2.60032 8.59606 2.55341 8.61404 2.49941C8.6538 2.3805 8.72055 2.27187 8.80913 2.18316C8.89764 2.09446 9.00556 2.02697 9.12439 1.98712C9.17829 1.96912 9.22518 1.93441 9.25839 1.88813C9.29159 1.84185 9.30946 1.78657 9.30946 1.73001C9.30946 1.6728 9.29159 1.61751 9.25839 1.57123C9.22518 1.52495 9.17829 1.49089 9.12439 1.47225C9.00556 1.4324 8.89764 1.36489 8.80913 1.27618C8.72055 1.18748 8.6538 1.07951 8.61404 0.959949C8.59606 0.905955 8.56156 0.859022 8.51537 0.825597C8.46925 0.792172 8.41376 0.774811 8.35684 0.774811C8.29993 0.774811 8.24449 0.792172 8.19831 0.825597C8.15219 0.859022 8.1177 0.905955 8.09971 0.959949C8.05995 1.07951 7.99321 1.18748 7.90463 1.27618C7.81611 1.36489 7.7082 1.4324 7.58936 1.47225C7.53547 1.49089 7.48857 1.52495 7.45536 1.57123C7.42215 1.61751 7.4043 1.6728 7.4043 1.73001C7.4043 1.78657 7.42215 1.84185 7.45536 1.88813C7.48857 1.93441 7.53547 1.96912 7.58936 1.98712ZM8.35678 1.58473C8.4013 1.63679 8.4496 1.68501 8.50131 1.72936C8.4496 1.77435 8.4013 1.82255 8.35678 1.87462C8.31227 1.82255 8.26396 1.77435 8.21225 1.72936C8.26396 1.68501 8.3122 1.63679 8.35672 1.58473H8.35678Z" fill="#EBE4FB"/>
<path d="M11.3505 22.2501C11.2317 22.2102 11.1238 22.1427 11.0352 22.054C10.9467 21.9653 10.8799 21.8567 10.8401 21.7378C10.8222 21.6838 10.7877 21.6369 10.7415 21.6034C10.6954 21.57 10.6399 21.552 10.583 21.552C10.5261 21.552 10.4706 21.57 10.4244 21.6034C10.3783 21.6369 10.3438 21.6838 10.3258 21.7378C10.2861 21.8567 10.2193 21.9653 10.1308 22.054C10.0422 22.1427 9.93433 22.2102 9.8155 22.2501C9.76154 22.2681 9.71471 22.3028 9.6815 22.3491C9.64829 22.3953 9.63037 22.4506 9.63037 22.5072C9.63037 22.5644 9.64829 22.6197 9.6815 22.666C9.71471 22.7122 9.76154 22.7463 9.8155 22.7649C9.93433 22.8048 10.0422 22.8723 10.1308 22.961C10.2193 23.0497 10.2861 23.1577 10.3258 23.2772C10.3438 23.3312 10.3783 23.3782 10.4244 23.4116C10.4706 23.445 10.5261 23.4624 10.583 23.4624C10.6399 23.4624 10.6954 23.445 10.7415 23.4116C10.7877 23.3782 10.8222 23.3312 10.8401 23.2772C10.8799 23.1577 10.9467 23.0497 11.0352 22.961C11.1238 22.8723 11.2317 22.8048 11.3505 22.7649C11.4044 22.7463 11.4513 22.7122 11.4845 22.666C11.5177 22.6197 11.5356 22.5644 11.5356 22.5072C11.5356 22.4506 11.5177 22.3953 11.4845 22.3491C11.4513 22.3028 11.4044 22.2681 11.3505 22.2501ZM10.583 22.6525C10.5385 22.6004 10.4902 22.5522 10.4385 22.5078C10.4902 22.4628 10.5385 22.4146 10.583 22.3626C10.6276 22.4146 10.6759 22.4628 10.7276 22.5078C10.6759 22.5522 10.6276 22.6004 10.583 22.6525Z" fill="#EBE4FB"/>
<path d="M22.7545 19.886C22.6356 19.8461 22.5277 19.7786 22.4397 19.6899C22.3511 19.6012 22.2843 19.4925 22.2445 19.3736C22.2265 19.3196 22.1918 19.2727 22.1455 19.2393C22.0999 19.2059 22.044 19.1879 21.9875 19.1879C21.9304 19.1879 21.8751 19.2059 21.8289 19.2393C21.7826 19.2727 21.7479 19.3196 21.7299 19.3736C21.6901 19.4925 21.6233 19.6012 21.5353 19.6899C21.4467 19.7786 21.3387 19.8461 21.2199 19.886C21.1659 19.9039 21.1191 19.9387 21.0857 19.9849C21.0523 20.0312 21.0349 20.0865 21.0349 20.1431C21.0349 20.2003 21.0523 20.2555 21.0857 20.3018C21.1191 20.3481 21.1659 20.3822 21.2199 20.4002C21.3387 20.4407 21.4467 20.5075 21.5353 20.5969C21.6233 20.6856 21.6901 20.7936 21.7299 20.9131C21.7479 20.9671 21.7826 21.014 21.8289 21.0474C21.8751 21.0802 21.9304 21.0982 21.9875 21.0982C22.044 21.0982 22.0999 21.0802 22.1455 21.0474C22.1918 21.014 22.2265 20.9671 22.2445 20.9131C22.2843 20.7936 22.3511 20.6856 22.4397 20.5969C22.5277 20.5075 22.6356 20.4407 22.7545 20.4002C22.8084 20.3822 22.8553 20.3481 22.8887 20.3018C22.9221 20.2555 22.9401 20.2003 22.9401 20.1431C22.9401 20.0865 22.9221 20.0312 22.8887 19.9849C22.8553 19.9387 22.8084 19.9039 22.7545 19.886ZM21.9875 20.2883C21.9426 20.2363 21.8944 20.188 21.843 20.1437C21.8944 20.0987 21.9426 20.0505 21.9875 19.9984C22.0318 20.0505 22.08 20.0987 22.132 20.1437C22.08 20.188 22.0318 20.2363 21.9875 20.2883Z" fill="#EBE4FB"/>
<path d="M23.0513 2.43958C21.0465 2.52893 19.1305 3.29063 17.6109 4.6019C17.451 4.73882 17.2965 4.88152 17.1473 5.02936C15.531 3.71873 13.5139 3.00459 11.4339 3.00523C6.44761 3.00523 2.39116 7.04189 2.39116 12.0041C2.38961 13.1817 2.61983 14.3471 3.06864 15.4353C1.14017 18.1903 0.561735 20.0299 1.30217 21.0564C1.73994 21.6632 2.56755 21.8406 3.38526 21.8406C4.49338 21.8406 5.58351 21.5154 5.66162 21.4909C5.66715 21.4896 5.67261 21.4877 5.67794 21.4858C6.51383 21.1715 7.3275 20.8012 8.11335 20.3763C9.70934 21.0024 11.4496 21.1638 13.1333 20.8424C14.8171 20.521 16.3757 19.7297 17.6293 18.5599C19.2749 17.0268 20.2821 14.9294 20.4504 12.6855C20.6528 12.4271 20.7498 12.1025 20.7228 11.7753C20.6952 11.4488 20.5455 11.1441 20.3033 10.923C20.1813 10.8105 20.0991 10.6614 20.0695 10.4981C20.04 10.3349 20.065 10.1658 20.1402 10.018C21.1981 9.12514 22.0364 8.00029 22.5907 6.7308C23.1444 5.46131 23.3988 4.08189 23.3346 2.69799C23.3333 2.66263 23.3243 2.62728 23.3095 2.59514C23.2941 2.563 23.2729 2.53408 23.2466 2.50965C23.2202 2.48587 23.1894 2.46724 23.156 2.45567C23.1226 2.44346 23.0866 2.4383 23.0513 2.43958ZM11.434 3.54774C13.3743 3.54645 15.2569 4.20788 16.7711 5.42209C16.5201 5.70106 16.2864 5.9948 16.0713 6.30205C15.931 6.39332 15.7645 6.43511 15.5979 6.42161C15.4312 6.40811 15.2736 6.34062 15.1496 6.22813C14.8952 5.99673 14.5593 5.87526 14.2156 5.89133C13.8719 5.90675 13.5486 6.05843 13.3166 6.31297L11.6905 8.0742C11.6661 8.10056 11.6472 8.13141 11.635 8.16548C11.6227 8.1989 11.6173 8.2349 11.6189 8.27089C11.6206 8.30689 11.6294 8.34223 11.6447 8.37437C11.6602 8.40715 11.6818 8.43609 11.7085 8.45988L12.7405 9.38868C13.0689 9.68435 13.4951 9.84698 13.9367 9.84634C14.1871 9.84634 14.4347 9.79427 14.6639 9.69335C14.679 9.72871 14.7016 9.76084 14.7301 9.7872L15.1156 10.1382L14.0888 10.4068C14.0415 10.4191 13.9985 10.4441 13.9643 10.4788C13.93 10.5135 13.9058 10.5573 13.8941 10.6042V10.6055C13.4761 11.1698 12.5893 12.3397 11.4849 13.6336L11.4578 13.6015C11.427 13.5655 11.3973 13.5275 11.3698 13.4896L10.9132 12.8565C10.6028 12.4258 10.1269 12.1719 9.6338 12.1719C9.62538 12.1719 9.61684 12.1719 9.60836 12.1719L8.68517 11.6211C8.51065 11.5176 8.31254 11.461 8.10982 11.4559C7.90702 11.4507 7.70642 11.4983 7.52714 11.5934L7.03542 11.855C6.88035 11.9373 6.70024 11.9585 6.53053 11.9142C6.36089 11.8698 6.21398 11.7631 6.11885 11.6159L5.64126 10.8658C5.56155 10.7404 5.52031 10.5945 5.52262 10.4467C5.52493 10.2982 5.57066 10.1536 5.65423 10.0315C5.74808 9.89326 5.87848 9.78398 6.03085 9.71521C6.18328 9.64707 6.35164 9.62201 6.51724 9.64386L7.23365 9.73386C7.41119 9.75829 7.59189 9.72935 7.75331 9.65222C7.91467 9.57444 8.04969 9.45038 8.14148 9.29676C8.22705 9.15084 8.35365 9.03324 8.50551 8.95867C8.65742 8.88411 8.82784 8.85582 8.99556 8.87768L9.30889 8.91752C9.46537 8.9368 9.62429 8.9156 9.77004 8.85518C9.91579 8.7954 10.0434 8.69768 10.1404 8.57363L10.4164 8.21689C10.5737 8.0157 10.6622 7.76887 10.6687 7.51305C10.6752 7.25722 10.5994 7.00655 10.4525 6.797L9.85746 5.94339C9.60579 5.58343 9.27909 5.28196 8.89997 5.06084C8.81814 5.01328 8.73907 4.96057 8.66314 4.90401L7.88416 4.321C8.9978 3.80999 10.2088 3.54581 11.434 3.54774ZM15.6485 6.9654C15.2829 7.59597 14.995 8.26832 14.791 8.9683C14.5626 9.18106 14.2627 9.30127 13.9503 9.30448C13.638 9.3077 13.3358 9.19392 13.1029 8.98566L12.2749 8.24068L13.716 6.67936C13.7829 6.60609 13.8636 6.54632 13.9535 6.5039C14.0434 6.46147 14.1408 6.43768 14.24 6.43253C14.3392 6.42803 14.4385 6.44282 14.5319 6.47689C14.6254 6.51031 14.7113 6.56238 14.7847 6.62922C15.0215 6.84391 15.329 6.96348 15.6485 6.9654ZM14.709 10.8054L15.5935 10.574L15.9809 10.9269L15.807 11.8055L14.709 10.8054ZM14.8796 12.2413C14.8838 12.3281 14.856 12.4136 14.8016 12.4817C14.7472 12.5492 14.6698 12.5949 14.5841 12.6097L14.1338 12.6868L14.1687 12.231C14.1744 12.1597 14.2014 12.0916 14.246 12.0357C14.2907 11.9797 14.351 11.9386 14.4193 11.9174C14.4478 11.9084 14.4773 11.9032 14.5071 11.9019C14.5128 11.9019 14.5184 11.9019 14.5241 11.9019C14.6156 11.9019 14.7036 11.9373 14.7698 12.0003C14.8359 12.0639 14.8753 12.1501 14.8796 12.2413ZM7.34259 4.59355L8.33862 5.33853C8.43106 5.40795 8.52734 5.47158 8.62697 5.52943C8.93813 5.71134 9.20625 5.95817 9.41289 6.2532L10.008 7.10746C10.0883 7.22188 10.1298 7.35942 10.1262 7.49955C10.1227 7.63968 10.0743 7.77466 9.98824 7.88457L9.71223 8.24131C9.67311 8.29145 9.62165 8.33003 9.56294 8.35446C9.50423 8.37888 9.44026 8.38724 9.37724 8.37953L9.06397 8.33967C8.79084 8.30431 8.51334 8.35059 8.26616 8.47208C8.01892 8.59356 7.81299 8.78511 7.67385 9.02293C7.63512 9.08464 7.57943 9.13349 7.51339 9.16435C7.44736 9.1952 7.37381 9.20613 7.30174 9.19585L6.58545 9.10522C6.32074 9.07116 6.05159 9.11036 5.80808 9.22027C5.56456 9.32955 5.35631 9.50504 5.20645 9.72615C5.06314 9.93634 4.98465 10.1838 4.98073 10.4377C4.97681 10.6922 5.04753 10.9423 5.18423 11.157L5.66188 11.9071C5.83075 12.1693 6.09168 12.3583 6.3932 12.4374C6.69472 12.5164 7.01486 12.4792 7.29043 12.3339L7.78209 12.0716C7.87895 12.0202 7.98732 11.9945 8.09684 11.9977C8.20636 12.0003 8.31331 12.0305 8.40761 12.0864L9.34088 12.6437C9.42227 12.6926 9.5158 12.717 9.61054 12.7144C9.93744 12.7067 10.2603 12.8777 10.4737 13.1734L10.9303 13.8065C10.9664 13.8573 11.0054 13.9061 11.0458 13.9537L11.1265 14.0482C10.9889 14.2057 10.8487 14.3644 10.706 14.5232C9.91765 15.4012 9.18056 16.1533 8.49459 16.7787C8.46067 16.7202 8.42296 16.6637 8.38166 16.6097L7.36861 15.2881C7.29852 15.1968 7.24662 15.0927 7.21579 14.9821L6.88158 13.7821C6.80944 13.5263 6.67255 13.2942 6.48422 13.1072C6.29581 12.9208 6.06245 12.7858 5.80667 12.7157L5.73376 12.6964C5.62893 12.6675 5.5327 12.6142 5.45331 12.5402L4.82946 11.9559C4.74981 11.8814 4.68126 11.7959 4.62602 11.7014C4.46325 11.4244 4.22378 11.2 3.93652 11.056C3.64927 10.9121 3.32655 10.8542 3.00717 10.8896C3.36804 8.17577 5.02762 5.86368 7.34259 4.59355ZM2.93323 12.0041C2.93323 11.8171 2.93998 11.6313 2.95212 11.4475L2.97736 11.4424C3.20527 11.398 3.44127 11.4257 3.65286 11.5214C3.86445 11.6172 4.04123 11.776 4.15872 11.9765C4.24029 12.1153 4.34146 12.242 4.4592 12.3519L5.0828 12.9362C5.22675 13.0705 5.40141 13.1682 5.59154 13.2197L5.66445 13.2396C5.82979 13.2846 5.98061 13.3713 6.1024 13.4922C6.22419 13.613 6.31277 13.7628 6.35947 13.928L6.69369 15.1281C6.74302 15.3055 6.82614 15.472 6.93849 15.6185L7.95148 16.9401C8.00119 17.005 8.04269 17.0763 8.075 17.1515C7.34259 17.784 6.67757 18.2571 6.08005 18.5727C5.09578 17.7847 4.30176 16.7851 3.75692 15.6481C3.21208 14.511 2.93053 13.2653 2.93323 12.0041ZM3.37132 16.0903C3.90492 17.1297 4.63611 18.0553 5.52384 18.815C4.787 19.085 3.43935 19.4463 2.93998 18.9295C2.54513 18.5213 2.70019 17.5218 3.37132 16.0903ZM5.49551 20.9748C4.66899 21.2242 2.40747 21.6626 1.74155 20.7389C1.44645 20.3294 1.36217 19.506 2.21174 17.8534C2.12079 18.502 2.23577 18.9854 2.55598 19.3125C2.86065 19.623 3.30683 19.7323 3.78274 19.7323C4.88669 19.7323 6.14943 19.1454 6.16748 19.1371C7.50344 18.4808 9.1661 17.0506 11.1093 14.8857C12.4815 13.3578 13.6412 11.8512 14.2125 11.0856L14.5137 11.3601C14.5031 11.3601 14.4926 11.3601 14.4821 11.3601C14.2632 11.3704 14.0557 11.4604 13.8985 11.6133C13.7414 11.7663 13.6454 11.9707 13.6288 12.1893L13.5674 12.9921C13.5643 13.0332 13.5705 13.0744 13.5857 13.1129C13.601 13.1515 13.6247 13.1856 13.6552 13.2132C13.6857 13.2415 13.7221 13.2614 13.7617 13.273C13.8012 13.2846 13.8429 13.2871 13.8835 13.2801L14.6766 13.1438C14.8925 13.1065 15.0874 12.9921 15.2245 12.8211C15.3616 12.6501 15.4316 12.4348 15.4211 12.2163C15.4206 12.2053 15.4189 12.1951 15.4181 12.1841L15.6142 12.3628C14.4764 14.3342 11.3753 18.7611 5.49551 20.9748ZM17.259 18.1639C16.136 19.211 14.752 19.9367 13.2523 20.2639C11.7525 20.5917 10.1923 20.5094 8.73534 20.026C12.8964 17.5809 15.2024 14.18 16.1284 12.5557C16.1585 12.5364 16.1842 12.5107 16.2043 12.4804C16.2245 12.4509 16.2384 12.4175 16.2454 12.3821L16.4491 11.353L16.7873 11.6616C16.8206 11.6911 16.8608 11.7123 16.9043 11.7226C16.7927 12.0517 16.7787 12.4052 16.8639 12.7421C16.9492 13.0782 17.1299 13.3829 17.3845 13.6188L18.4052 14.5605C18.4552 14.6068 18.5208 14.6325 18.5889 14.6325C18.5931 14.6325 18.5974 14.6325 18.6017 14.6318C18.6376 14.6306 18.6727 14.6215 18.7052 14.6061C18.7376 14.5907 18.7666 14.5688 18.7906 14.5425L19.8203 13.3938C19.5158 15.2226 18.6152 16.8996 17.259 18.1639ZM19.9873 12.395L18.5704 13.9756L17.7516 13.2203C17.519 13.0043 17.3769 12.7086 17.3538 12.3924C17.3308 12.0755 17.4286 11.7625 17.6275 11.515C18.2981 11.2527 18.9346 10.9095 19.5229 10.4943C19.555 10.8124 19.7027 11.1081 19.9385 11.3241C20.0868 11.4597 20.1748 11.6487 20.1845 11.8492C20.1935 12.0504 20.1228 12.2465 19.9873 12.395ZM17.0357 11.1538L15.2121 9.49282C15.6379 7.74831 16.6002 6.18185 17.9634 5.01392C18.8364 4.26251 19.8537 3.69752 20.9527 3.35363C21.3536 4.0067 21.9323 4.53184 22.6209 4.86801C22.3171 6.31105 21.642 7.65061 20.6624 8.75298C19.6828 9.85535 18.4327 10.6832 17.0357 11.1538ZM22.7192 4.3088C22.2304 4.04269 21.8128 3.66345 21.5007 3.20322C21.9285 3.10166 22.3633 3.03289 22.8014 2.99882C22.8078 3.43719 22.7802 3.87492 22.7192 4.3088Z" fill="#423074"/>
<path d="M20.1273 5.93883C19.9642 5.79035 19.767 5.68366 19.5537 5.62838C19.3398 5.57246 19.1161 5.56987 18.9013 5.62065C18.6865 5.67143 18.4873 5.77365 18.3208 5.91892C18.1543 6.06355 18.0257 6.24674 17.9459 6.45308C17.8661 6.65877 17.8377 6.88117 17.863 7.10036C17.8883 7.31955 17.9666 7.52976 18.0912 7.71167C18.2158 7.89422 18.3828 8.04335 18.5778 8.14619C18.773 8.24968 18.9902 8.30368 19.2109 8.30432C19.2326 8.30432 19.2544 8.30366 19.2762 8.30238C19.5447 8.29017 19.8036 8.19826 20.0194 8.0382C20.2359 7.87879 20.3997 7.6583 20.4909 7.40504C20.5821 7.15243 20.5962 6.87797 20.5314 6.61699C20.4665 6.35602 20.3258 6.1201 20.1273 5.93883ZM19.8164 7.4944C19.6892 7.63453 19.5177 7.72581 19.3308 7.7528C19.1437 7.78044 18.953 7.74187 18.7911 7.64417C18.6292 7.54646 18.5062 7.39606 18.443 7.218C18.3797 7.03995 18.3801 6.84519 18.4442 6.66713C18.5082 6.48908 18.6319 6.3393 18.7943 6.24224C18.9566 6.14518 19.1474 6.10789 19.334 6.13617C19.5209 6.16381 19.6925 6.25638 19.819 6.3965C19.9455 6.53728 20.0194 6.71727 20.0284 6.90561C20.0335 7.01296 20.0175 7.1203 19.9815 7.22122C19.9449 7.32214 19.889 7.41533 19.8164 7.4944Z" fill="#284268"/>
<path d="M9.51039 17.7455C9.46844 17.7789 9.42617 17.8124 9.38365 17.8458C9.3286 17.8908 9.2934 17.9551 9.2855 18.0258C9.2776 18.0965 9.2977 18.1672 9.34151 18.2231C9.38526 18.279 9.44923 18.3156 9.51964 18.3246C9.59004 18.3343 9.66121 18.315 9.71787 18.2726C9.76161 18.2385 9.80503 18.2038 9.84813 18.1697C9.90434 18.1247 9.94044 18.0592 9.94847 17.9878C9.9565 17.9165 9.93588 17.8445 9.89105 17.7886C9.84627 17.732 9.78095 17.696 9.70952 17.6883C9.63809 17.68 9.5664 17.7005 9.51026 17.7455H9.51039Z" fill="#284268"/>
<path d="M10.7587 16.6598C10.5415 16.8655 10.3171 17.068 10.0916 17.2627C10.0647 17.2859 10.0426 17.3142 10.0266 17.3463C10.0106 17.3778 10.001 17.4125 9.99841 17.4485C9.99314 17.5198 10.0165 17.5905 10.0635 17.6452C10.1104 17.6998 10.1771 17.7332 10.2488 17.7384C10.3205 17.7442 10.3913 17.7204 10.4457 17.6735C10.6774 17.4736 10.9079 17.2647 11.1311 17.0538C11.1833 17.0044 11.2138 16.9362 11.2158 16.8642C11.2178 16.7922 11.1912 16.7228 11.1418 16.6708C11.0925 16.618 11.0243 16.5878 10.9525 16.5859C10.8806 16.584 10.8109 16.6103 10.7587 16.6598Z" fill="#284268"/>
<path d="M12.9467 14.6711C12.919 14.6486 12.8873 14.6319 12.8532 14.6216C12.8191 14.6113 12.7833 14.6081 12.7479 14.6119C12.7125 14.6151 12.6782 14.6261 12.6469 14.6428C12.6156 14.6595 12.5879 14.6826 12.5654 14.7103C12.1725 15.1937 11.7545 15.6629 11.3234 16.1045C11.2731 16.1559 11.2454 16.2247 11.2462 16.2967C11.247 16.3687 11.2764 16.4375 11.3277 16.4876C11.3792 16.5377 11.4484 16.566 11.5203 16.5647C11.5921 16.5641 11.6607 16.5345 11.711 16.4831C12.1536 16.0299 12.5827 15.5485 12.986 15.0522C13.0313 14.997 13.0527 14.925 13.0453 14.8536C13.0379 14.7823 13.0024 14.7167 12.9467 14.6711Z" fill="#284268"/>
</svg>
